<?xml version="1.0" encoding="utf-8"?>
<svg viewBox="0 0 500 500" xmlns="http://www.w3.org/2000/svg">
  <defs/>
  <g>
    <g transform="matrix(2.007025, 0, 0, 2.005013, 72.652237, 172.556946)">
      <defs/>
    </g>
  </g>
  <g transform="matrix(2.007025, 0, 0, 2.005013, 72.652237, 225.952454)">
    <defs/>
    <g/>
    <g>
      <g/>
    </g>
  </g>
  <g transform="matrix(2.007025, 0, 0, 2.005013, 125.985641, 225.890274)">
    <defs/>
    <g/>
    <g>
      <g/>
    </g>
  </g>
  <g transform="matrix(2.007025, 0, 0, 2.005013, 179.318985, 225.952454)">
    <defs/>
    <g/>
    <g>
      <g/>
    </g>
  </g>
  <g transform="matrix(2.007025, 0, 0, 2.005013, 179.318985, 172.556946)">
    <defs/>
    <g/>
    <g>
      <g/>
    </g>
  </g>
  <g transform="matrix(2.007025, 0, 0, 2.005013, 125.985641, 172.556946)">
    <defs/>
    <g/>
    <g>
      <g/>
    </g>
  </g>
  <g transform="matrix(2.007025, 0, 0, 2.005013, 125.985641, 279.285797)">
    <defs/>
    <g/>
    <g>
      <g/>
    </g>
  </g>
  <g transform="matrix(2.007025, 0, 0, 2.005013, 72.652237, 279.223572)">
    <defs/>
    <g/>
    <g>
      <g/>
    </g>
  </g>
  <g transform="matrix(2.007025, 0, 0, 2.005013, 179.318985, 279.223572)">
    <defs/>
    <g/>
    <g>
      <g/>
    </g>
  </g>
  <g transform="matrix(2.007025, 0, 0, 2.005013, 272.652222, 225.890213)">
    <defs/>
    <g/>
    <g>
      <g/>
    </g>
  </g>
  <g transform="matrix(2.007025, 0, 0, 2.005013, 325.985596, 279.223572)">
    <defs/>
    <g/>
    <g>
      <g/>
    </g>
  </g>
  <g transform="matrix(2.007025, 0, 0, 2.005013, 272.652222, 279.161346)">
    <defs/>
    <g/>
    <g>
      <g/>
    </g>
  </g>
  <g transform="matrix(2.007025, 0, 0, 2.005013, 272.652222, 172.619171)">
    <defs/>
    <g/>
    <g>
      <g/>
    </g>
  </g>
  <g transform="matrix(2.007025, 0, 0, 2.005013, 325.985596, 225.952499)">
    <defs/>
    <g/>
    <g>
      <g/>
    </g>
  </g>
  <g transform="matrix(2.007026, 0, 0, 2.005013, 379.318939, 226.014679)">
    <defs/>
    <g/>
    <g>
      <g/>
    </g>
  </g>
  <g transform="matrix(2.007026, 0, 0, 2.005013, 379.318939, 172.619171)">
    <defs/>
    <g/>
    <g>
      <g/>
    </g>
  </g>
  <g transform="matrix(2.007025, 0, 0, 2.005013, 325.985596, 172.619171)">
    <defs/>
    <g/>
    <g>
      <g/>
    </g>
  </g>
  <g transform="matrix(2.007026, 0, 0, 2.005013, 379.318939, 279.285797)">
    <defs/>
    <g/>
    <g>
      <g/>
    </g>
  </g>
  <rect style="paint-order: fill; stroke: rgba(5, 5, 5, 0.93); stroke-width: 4px;" width="400" height="200" rx="10" ry="10" x="50" y="150"/>
  <line style="stroke-linecap: round; stroke: rgba(5, 5, 5, 0.93); stroke-width: 4px; fill: rgba(100, 231, 255, 0.93);" x1="250" y1="170" x2="250" y2="336.667"/>
</svg>