<?xml version="1.0" encoding="utf-8"?>
<svg viewBox="0 0 500 500" xmlns="http://www.w3.org/2000/svg">
  <defs/>
  <g>
    <g transform="matrix(2.007025, 0, 0, 2.005013, 72.652237, 172.556946)">
      <defs/>
    </g>
  </g>
  <g transform="matrix(2.007025, 0, 0, 2.005013, 72.652237, 225.952454)">
    <defs/>
    <g/>
    <g>
      <g/>
    </g>
  </g>
  <g transform="matrix(2.007025, 0, 0, 2.005013, 125.985641, 225.890274)">
    <defs/>
    <g/>
    <g>
      <g/>
    </g>
  </g>
  <g transform="matrix(2.007025, 0, 0, 2.005013, 179.318985, 225.952454)">
    <defs/>
    <g/>
    <g>
      <g/>
    </g>
  </g>
  <g transform="matrix(2.007025, 0, 0, 2.005013, 179.318985, 172.556946)">
    <defs/>
    <g/>
    <g>
      <g/>
    </g>
  </g>
  <g transform="matrix(2.007025, 0, 0, 2.005013, 125.985641, 172.556946)">
    <defs/>
    <g/>
    <g>
      <g/>
    </g>
  </g>
  <g transform="matrix(2.007025, 0, 0, 2.005013, 125.985641, 279.285797)">
    <defs/>
    <g/>
    <g>
      <g/>
    </g>
  </g>
  <g transform="matrix(2.007025, 0, 0, 2.005013, 72.652237, 279.223572)">
    <defs/>
    <g/>
    <g>
      <g/>
    </g>
  </g>
  <g transform="matrix(2.007025, 0, 0, 2.005013, 179.318985, 279.223572)">
    <defs/>
    <g/>
    <g>
      <g/>
    </g>
  </g>
  <g transform="matrix(2.007025, 0, 0, 2.005013, 272.652222, 225.890213)">
    <defs/>
    <g/>
    <g>
      <g/>
    </g>
  </g>
  <g transform="matrix(2.007025, 0, 0, 2.005013, 325.985596, 279.223572)">
    <defs/>
    <g/>
    <g>
      <g/>
    </g>
  </g>
  <g transform="matrix(2.007025, 0, 0, 2.005013, 272.652222, 279.161346)">
    <defs/>
    <g/>
    <g>
      <g/>
    </g>
  </g>
  <g transform="matrix(2.007025, 0, 0, 2.005013, 272.652222, 172.619171)">
    <defs/>
    <g/>
    <g>
      <g/>
    </g>
  </g>
  <g transform="matrix(2.007025, 0, 0, 2.005013, 325.985596, 225.952499)">
    <defs/>
    <g/>
    <g>
      <g/>
    </g>
  </g>
  <g transform="matrix(2.007026, 0, 0, 2.005013, 379.318939, 226.014679)">
    <defs/>
    <g/>
    <g>
      <g/>
    </g>
  </g>
  <g transform="matrix(2.007026, 0, 0, 2.005013, 379.318939, 172.619171)">
    <defs/>
    <g/>
    <g>
      <g/>
    </g>
  </g>
  <g transform="matrix(2.007025, 0, 0, 2.005013, 325.985596, 172.619171)">
    <defs/>
    <g/>
    <g>
      <g/>
    </g>
  </g>
  <g transform="matrix(2.007026, 0, 0, 2.005013, 379.318939, 279.285797)">
    <defs/>
    <g/>
    <g>
      <g/>
    </g>
  </g>
  <rect style="paint-order: fill; stroke: rgba(5, 5, 5, 0.93); stroke-width: 4px;" width="400" height="200" rx="10" ry="10" x="50" y="150"/>
  <line style="stroke-linecap: round; stroke: rgba(5, 5, 5, 0.93); stroke-width: 4px; fill: rgba(100, 231, 255, 0.93);" x1="250" y1="170" x2="250" y2="336.667"/>
  <g transform="matrix(2.007025, 0, 0, 2.005013, 72.652168, 172.555969)">
    <defs/>
    <g/>
    <g>
      <g>
        <path d="M6,4.01C3.58,5.84,2,8.73,2,12c0,1.46,0.32,2.85,0.89,4.11L6,14.31V4.01z" style="fill: rgba(100, 231, 255, 0.93); stroke: rgba(100, 231, 255, 0.93);"/>
        <path d="M11,11.42V2.05C9.94,2.16,8.93,2.43,8,2.84v10.32L11,11.42z" style="fill: rgba(100, 231, 255, 0.93); stroke: rgba(100, 231, 255, 0.93);"/>
        <path d="M12,13.15l-8.11,4.68c0.61,0.84,1.34,1.59,2.18,2.2L15,14.89L12,13.15z" style="fill: rgba(100, 231, 255, 0.93); stroke: rgba(100, 231, 255, 0.93);"/>
        <path d="M13,7.96v3.46l8.11,4.68c0.42-0.93,0.7-1.93,0.82-2.98L13,7.96z" style="fill: rgba(100, 231, 255, 0.93); stroke: rgba(100, 231, 255, 0.93);"/>
        <path d="M8.07,21.2C9.28,21.71,10.6,22,12,22c3.34,0,6.29-1.65,8.11-4.16L17,16.04L8.07,21.2z" style="fill: rgba(100, 231, 255, 0.93); stroke: rgba(100, 231, 255, 0.93);"/>
        <path d="M21.92,10.81c-0.55-4.63-4.26-8.3-8.92-8.76v3.6L21.92,10.81z" style="fill: rgba(100, 231, 255, 0.93); stroke: rgba(100, 231, 255, 0.93);"/>
      </g>
    </g>
  </g>
  <g transform="matrix(2.007025, 0, 0, 2.005013, 179.318909, 279.222595)">
    <defs/>
    <g/>
    <g>
      <g>
        <path d="M6,4.01C3.58,5.84,2,8.73,2,12c0,1.46,0.32,2.85,0.89,4.11L6,14.31V4.01z" style="fill: rgba(100, 231, 255, 0.93); stroke: rgba(100, 231, 255, 0.93);"/>
        <path d="M11,11.42V2.05C9.94,2.16,8.93,2.43,8,2.84v10.32L11,11.42z" style="fill: rgba(100, 231, 255, 0.93); stroke: rgba(100, 231, 255, 0.93);"/>
        <path d="M12,13.15l-8.11,4.68c0.61,0.84,1.34,1.59,2.18,2.2L15,14.89L12,13.15z" style="fill: rgba(100, 231, 255, 0.93); stroke: rgba(100, 231, 255, 0.93);"/>
        <path d="M13,7.96v3.46l8.11,4.68c0.42-0.93,0.7-1.93,0.82-2.98L13,7.96z" style="fill: rgba(100, 231, 255, 0.93); stroke: rgba(100, 231, 255, 0.93);"/>
        <path d="M8.07,21.2C9.28,21.71,10.6,22,12,22c3.34,0,6.29-1.65,8.11-4.16L17,16.04L8.07,21.2z" style="fill: rgba(100, 231, 255, 0.93); stroke: rgba(100, 231, 255, 0.93);"/>
        <path d="M21.92,10.81c-0.55-4.63-4.26-8.3-8.92-8.76v3.6L21.92,10.81z" style="fill: rgba(100, 231, 255, 0.93); stroke: rgba(100, 231, 255, 0.93);"/>
      </g>
    </g>
  </g>
  <g transform="matrix(2.007025, 0, 0, 2.005013, 272.65213, 172.618195)">
    <defs/>
    <g/>
    <g>
      <g>
        <path d="M6,4.01C3.58,5.84,2,8.73,2,12c0,1.46,0.32,2.85,0.89,4.11L6,14.31V4.01z" style="fill: rgba(100, 231, 255, 0.93); stroke: rgba(100, 231, 255, 0.93);"/>
        <path d="M11,11.42V2.05C9.94,2.16,8.93,2.43,8,2.84v10.32L11,11.42z" style="fill: rgba(100, 231, 255, 0.93); stroke: rgba(100, 231, 255, 0.93);"/>
        <path d="M12,13.15l-8.11,4.68c0.61,0.84,1.34,1.59,2.18,2.2L15,14.89L12,13.15z" style="fill: rgba(100, 231, 255, 0.93); stroke: rgba(100, 231, 255, 0.93);"/>
        <path d="M13,7.96v3.46l8.11,4.68c0.42-0.93,0.7-1.93,0.82-2.98L13,7.96z" style="fill: rgba(100, 231, 255, 0.93); stroke: rgba(100, 231, 255, 0.93);"/>
        <path d="M8.07,21.2C9.28,21.71,10.6,22,12,22c3.34,0,6.29-1.65,8.11-4.16L17,16.04L8.07,21.2z" style="fill: rgba(100, 231, 255, 0.93); stroke: rgba(100, 231, 255, 0.93);"/>
        <path d="M21.92,10.81c-0.55-4.63-4.26-8.3-8.92-8.76v3.6L21.92,10.81z" style="fill: rgba(100, 231, 255, 0.93); stroke: rgba(100, 231, 255, 0.93);"/>
      </g>
    </g>
  </g>
  <g transform="matrix(2.007025, 0, 0, 2.005013, 379.318878, 279.284851)">
    <defs/>
    <g/>
    <g>
      <g>
        <path d="M6,4.01C3.58,5.84,2,8.73,2,12c0,1.46,0.32,2.85,0.89,4.11L6,14.31V4.01z" style="fill: rgba(100, 231, 255, 0.93); stroke: rgba(100, 231, 255, 0.93);"/>
        <path d="M11,11.42V2.05C9.94,2.16,8.93,2.43,8,2.84v10.32L11,11.42z" style="fill: rgba(100, 231, 255, 0.93); stroke: rgba(100, 231, 255, 0.93);"/>
        <path d="M12,13.15l-8.11,4.68c0.61,0.84,1.34,1.59,2.18,2.2L15,14.89L12,13.15z" style="fill: rgba(100, 231, 255, 0.93); stroke: rgba(100, 231, 255, 0.93);"/>
        <path d="M13,7.96v3.46l8.11,4.68c0.42-0.93,0.7-1.93,0.82-2.98L13,7.96z" style="fill: rgba(100, 231, 255, 0.93); stroke: rgba(100, 231, 255, 0.93);"/>
        <path d="M8.07,21.2C9.28,21.71,10.6,22,12,22c3.34,0,6.29-1.65,8.11-4.16L17,16.04L8.07,21.2z" style="fill: rgba(100, 231, 255, 0.93); stroke: rgba(100, 231, 255, 0.93);"/>
        <path d="M21.92,10.81c-0.55-4.63-4.26-8.3-8.92-8.76v3.6L21.92,10.81z" style="fill: rgba(100, 231, 255, 0.93); stroke: rgba(100, 231, 255, 0.93);"/>
      </g>
    </g>
  </g>
</svg>