<?xml version="1.0" encoding="utf-8"?>
<svg viewBox="0 0 500 500" xmlns="http://www.w3.org/2000/svg">
  <defs/>
  <rect style="paint-order: fill; fill: rgba(217, 1, 158, 0); stroke: rgba(5, 5, 5, 0.93); stroke-width: 4px;" width="400" height="200" rx="10" ry="10" x="50" y="150"/>
  <line style="fill: rgb(216, 216, 216); stroke-linecap: round; stroke: rgba(5, 5, 5, 0.93); stroke-width: 4px;" x1="250" y1="170" x2="250" y2="336.667"/>
  <g transform="matrix(2.007025, 0, 0, 2.005013, 72.652046, 172.556442)">
    <defs/>
    <g/>
    <g>
      <g>
        <g>
          <path d="M6,4.01C3.58,5.84,2,8.73,2,12c0,1.46,0.32,2.85,0.89,4.11L6,14.31V4.01z" style="stroke: rgb(0, 0, 0); fill: rgba(100, 231, 255, 0.93);"/>
          <path d="M11,11.42V2.05C9.94,2.16,8.93,2.43,8,2.84v10.32L11,11.42z" style="stroke: rgb(0, 0, 0); fill: rgba(100, 231, 255, 0.93);"/>
          <path d="M12,13.15l-8.11,4.68c0.61,0.84,1.34,1.59,2.18,2.2L15,14.89L12,13.15z" style="stroke: rgb(0, 0, 0); fill: rgba(100, 231, 255, 0.93);"/>
          <path d="M13,7.96v3.46l8.11,4.68c0.42-0.93,0.7-1.93,0.82-2.98L13,7.96z" style="stroke: rgb(0, 0, 0); fill: rgba(100, 231, 255, 0.93);"/>
          <path d="M8.07,21.2C9.28,21.71,10.6,22,12,22c3.34,0,6.29-1.65,8.11-4.16L17,16.04L8.07,21.2z" style="stroke: rgb(0, 0, 0); fill: rgba(100, 231, 255, 0.93);"/>
          <path d="M21.92,10.81c-0.55-4.63-4.26-8.3-8.92-8.76v3.6L21.92,10.81z" style="stroke: rgb(0, 0, 0); fill: rgba(100, 231, 255, 0.93);"/>
          <path d="M 6 30.641 C 3.58 32.471 2 35.361 2 38.631 C 2 40.091 2.32 41.481 2.89 42.741 L 6 40.941 L 6 30.641 Z" style="stroke: rgb(0, 0, 0); fill: rgba(100, 231, 255, 0.93);"/>
          <path d="M 11 38.051 L 11 28.681 C 9.94 28.791 8.93 29.061 8 29.471 L 8 39.791 L 11 38.051 Z" style="stroke: rgb(0, 0, 0); fill: rgba(100, 231, 255, 0.93);"/>
          <path d="M 12 39.781 L 3.89 44.461 C 4.5 45.301 5.23 46.051 6.07 46.661 L 15 41.521 L 12 39.781 Z" style="stroke: rgb(0, 0, 0); fill: rgba(100, 231, 255, 0.93);"/>
          <path d="M 13 34.591 L 13 38.051 L 21.11 42.731 C 21.53 41.801 21.81 40.801 21.93 39.751 L 13 34.591 Z" style="stroke: rgb(0, 0, 0); fill: rgba(100, 231, 255, 0.93);"/>
          <path d="M 8.07 47.831 C 9.28 48.341 10.6 48.631 12 48.631 C 15.34 48.631 18.29 46.981 20.11 44.471 L 17 42.671 L 8.07 47.831 Z" style="stroke: rgb(0, 0, 0); fill: rgba(100, 231, 255, 0.93);"/>
          <path d="M 21.92 37.441 C 21.37 32.811 17.66 29.141 13 28.681 L 13 32.281 L 21.92 37.441 Z" style="stroke: rgb(0, 0, 0); fill: rgba(100, 231, 255, 0.93);"/>
          <path d="M 32.573 30.61 C 30.153 32.44 28.573 35.33 28.573 38.6 C 28.573 40.06 28.893 41.45 29.463 42.71 L 32.573 40.91 L 32.573 30.61 Z" style="stroke: rgb(0, 0, 0); fill: rgba(100, 231, 255, 0.93);"/>
          <path d="M 37.573 38.02 L 37.573 28.65 C 36.513 28.76 35.503 29.03 34.573 29.44 L 34.573 39.76 L 37.573 38.02 Z" style="stroke: rgb(0, 0, 0); fill: rgba(100, 231, 255, 0.93);"/>
          <path d="M 38.573 39.75 L 30.463 44.43 C 31.073 45.27 31.803 46.02 32.643 46.63 L 41.573 41.49 L 38.573 39.75 Z" style="stroke: rgb(0, 0, 0); fill: rgba(100, 231, 255, 0.93);"/>
          <path d="M 39.573 34.56 L 39.573 38.02 L 47.683 42.7 C 48.103 41.77 48.383 40.77 48.503 39.72 L 39.573 34.56 Z" style="stroke: rgb(0, 0, 0); fill: rgba(100, 231, 255, 0.93);"/>
          <path d="M 34.643 47.8 C 35.853 48.31 37.173 48.6 38.573 48.6 C 41.913 48.6 44.863 46.95 46.683 44.44 L 43.573 42.64 L 34.643 47.8 Z" style="stroke: rgb(0, 0, 0); fill: rgba(100, 231, 255, 0.93);"/>
          <path d="M 48.493 37.41 C 47.943 32.78 44.233 29.11 39.573 28.65 L 39.573 32.25 L 48.493 37.41 Z" style="stroke: rgb(0, 0, 0); fill: rgba(100, 231, 255, 0.93);"/>
          <path d="M 59.147 30.641 C 56.727 32.471 55.147 35.361 55.147 38.631 C 55.147 40.091 55.467 41.481 56.037 42.741 L 59.147 40.941 L 59.147 30.641 Z" style="stroke: rgb(0, 0, 0); fill: rgba(100, 231, 255, 0.93);"/>
          <path d="M 64.147 38.051 L 64.147 28.681 C 63.087 28.791 62.077 29.061 61.147 29.471 L 61.147 39.791 L 64.147 38.051 Z" style="stroke: rgb(0, 0, 0); fill: rgba(100, 231, 255, 0.93);"/>
          <path d="M 65.147 39.781 L 57.037 44.461 C 57.647 45.301 58.377 46.051 59.217 46.661 L 68.147 41.521 L 65.147 39.781 Z" style="stroke: rgb(0, 0, 0); fill: rgba(100, 231, 255, 0.93);"/>
          <path d="M 66.147 34.591 L 66.147 38.051 L 74.257 42.731 C 74.677 41.801 74.957 40.801 75.077 39.751 L 66.147 34.591 Z" style="stroke: rgb(0, 0, 0); fill: rgba(100, 231, 255, 0.93);"/>
          <path d="M 61.217 47.831 C 62.427 48.341 63.747 48.631 65.147 48.631 C 68.487 48.631 71.437 46.981 73.257 44.471 L 70.147 42.671 L 61.217 47.831 Z" style="stroke: rgb(0, 0, 0); fill: rgba(100, 231, 255, 0.93);"/>
          <path d="M 75.067 37.441 C 74.517 32.811 70.807 29.141 66.147 28.681 L 66.147 32.281 L 75.067 37.441 Z" style="stroke: rgb(0, 0, 0); fill: rgba(100, 231, 255, 0.93);"/>
          <path d="M 59.147 4.01 C 56.727 5.84 55.147 8.73 55.147 12 C 55.147 13.46 55.467 14.85 56.037 16.11 L 59.147 14.31 L 59.147 4.01 Z" style="stroke: rgb(0, 0, 0); fill: rgba(100, 231, 255, 0.93);"/>
          <path d="M 64.147 11.42 L 64.147 2.05 C 63.087 2.16 62.077 2.43 61.147 2.84 L 61.147 13.16 L 64.147 11.42 Z" style="stroke: rgb(0, 0, 0); fill: rgba(100, 231, 255, 0.93);"/>
          <path d="M 65.147 13.15 L 57.037 17.83 C 57.647 18.67 58.377 19.42 59.217 20.03 L 68.147 14.89 L 65.147 13.15 Z" style="stroke: rgb(0, 0, 0); fill: rgba(100, 231, 255, 0.93);"/>
          <path d="M 66.147 7.96 L 66.147 11.42 L 74.257 16.1 C 74.677 15.17 74.957 14.17 75.077 13.12 L 66.147 7.96 Z" style="stroke: rgb(0, 0, 0); fill: rgba(100, 231, 255, 0.93);"/>
          <path d="M 61.217 21.2 C 62.427 21.71 63.747 22 65.147 22 C 68.487 22 71.437 20.35 73.257 17.84 L 70.147 16.04 L 61.217 21.2 Z" style="stroke: rgb(0, 0, 0); fill: rgba(100, 231, 255, 0.93);"/>
          <path d="M 75.067 10.81 C 74.517 6.18 70.807 2.51 66.147 2.05 L 66.147 5.65 L 75.067 10.81 Z" style="stroke: rgb(0, 0, 0); fill: rgba(100, 231, 255, 0.93);"/>
          <path d="M 32.573 4.01 C 30.153 5.84 28.573 8.73 28.573 12 C 28.573 13.46 28.893 14.85 29.463 16.11 L 32.573 14.31 L 32.573 4.01 Z" style="stroke: rgb(0, 0, 0); fill: rgba(100, 231, 255, 0.93);"/>
          <path d="M 37.573 11.42 L 37.573 2.05 C 36.513 2.16 35.503 2.43 34.573 2.84 L 34.573 13.16 L 37.573 11.42 Z" style="stroke: rgb(0, 0, 0); fill: rgba(100, 231, 255, 0.93);"/>
          <path d="M 38.573 13.15 L 30.463 17.83 C 31.073 18.67 31.803 19.42 32.643 20.03 L 41.573 14.89 L 38.573 13.15 Z" style="stroke: rgb(0, 0, 0); fill: rgba(100, 231, 255, 0.93);"/>
          <path d="M 39.573 7.96 L 39.573 11.42 L 47.683 16.1 C 48.103 15.17 48.383 14.17 48.503 13.12 L 39.573 7.96 Z" style="stroke: rgb(0, 0, 0); fill: rgba(100, 231, 255, 0.93);"/>
          <path d="M 34.643 21.2 C 35.853 21.71 37.173 22 38.573 22 C 41.913 22 44.863 20.35 46.683 17.84 L 43.573 16.04 L 34.643 21.2 Z" style="stroke: rgb(0, 0, 0); fill: rgba(100, 231, 255, 0.93);"/>
          <path d="M 48.493 10.81 C 47.943 6.18 44.233 2.51 39.573 2.05 L 39.573 5.65 L 48.493 10.81 Z" style="stroke: rgb(0, 0, 0); fill: rgba(100, 231, 255, 0.93);"/>
          <path d="M 32.573 57.241 C 30.153 59.071 28.573 61.961 28.573 65.231 C 28.573 66.691 28.893 68.081 29.463 69.341 L 32.573 67.541 L 32.573 57.241 Z" style="stroke: rgb(0, 0, 0); fill: rgba(100, 231, 255, 0.93);"/>
          <path d="M 37.573 64.651 L 37.573 55.281 C 36.513 55.391 35.503 55.661 34.573 56.071 L 34.573 66.391 L 37.573 64.651 Z" style="stroke: rgb(0, 0, 0); fill: rgba(100, 231, 255, 0.93);"/>
          <path d="M 38.573 66.381 L 30.463 71.061 C 31.073 71.901 31.803 72.651 32.643 73.261 L 41.573 68.121 L 38.573 66.381 Z" style="stroke: rgb(0, 0, 0); fill: rgba(100, 231, 255, 0.93);"/>
          <path d="M 39.573 61.191 L 39.573 64.651 L 47.683 69.331 C 48.103 68.401 48.383 67.401 48.503 66.351 L 39.573 61.191 Z" style="stroke: rgb(0, 0, 0); fill: rgba(100, 231, 255, 0.93);"/>
          <path d="M 34.643 74.431 C 35.853 74.941 37.173 75.231 38.573 75.231 C 41.913 75.231 44.863 73.581 46.683 71.071 L 43.573 69.271 L 34.643 74.431 Z" style="stroke: rgb(0, 0, 0); fill: rgba(100, 231, 255, 0.93);"/>
          <path d="M 48.493 64.041 C 47.943 59.411 44.233 55.741 39.573 55.281 L 39.573 58.881 L 48.493 64.041 Z" style="stroke: rgb(0, 0, 0); fill: rgba(100, 231, 255, 0.93);"/>
          <path d="M 6 57.21 C 3.58 59.04 2 61.93 2 65.2 C 2 66.66 2.32 68.05 2.89 69.31 L 6 67.51 L 6 57.21 Z" style="stroke: rgb(0, 0, 0); fill: rgba(100, 231, 255, 0.93);"/>
          <path d="M 11 64.62 L 11 55.25 C 9.94 55.36 8.93 55.63 8 56.04 L 8 66.36 L 11 64.62 Z" style="stroke: rgb(0, 0, 0); fill: rgba(100, 231, 255, 0.93);"/>
          <path d="M 12 66.35 L 3.89 71.03 C 4.5 71.87 5.23 72.62 6.07 73.23 L 15 68.09 L 12 66.35 Z" style="stroke: rgb(0, 0, 0); fill: rgba(100, 231, 255, 0.93);"/>
          <path d="M 13 61.16 L 13 64.62 L 21.11 69.3 C 21.53 68.37 21.81 67.37 21.93 66.32 L 13 61.16 Z" style="stroke: rgb(0, 0, 0); fill: rgba(100, 231, 255, 0.93);"/>
          <path d="M 8.07 74.4 C 9.28 74.91 10.6 75.2 12 75.2 C 15.34 75.2 18.29 73.55 20.11 71.04 L 17 69.24 L 8.07 74.4 Z" style="stroke: rgb(0, 0, 0); fill: rgba(100, 231, 255, 0.93);"/>
          <path d="M 21.92 64.01 C 21.37 59.38 17.66 55.71 13 55.25 L 13 58.85 L 21.92 64.01 Z" style="stroke: rgb(0, 0, 0); fill: rgba(100, 231, 255, 0.93);"/>
          <path d="M 59.147 57.21 C 56.727 59.04 55.147 61.93 55.147 65.2 C 55.147 66.66 55.467 68.05 56.037 69.31 L 59.147 67.51 L 59.147 57.21 Z" style="stroke: rgb(0, 0, 0); fill: rgba(100, 231, 255, 0.93);"/>
          <path d="M 64.147 64.62 L 64.147 55.25 C 63.087 55.36 62.077 55.63 61.147 56.04 L 61.147 66.36 L 64.147 64.62 Z" style="stroke: rgb(0, 0, 0); fill: rgba(100, 231, 255, 0.93);"/>
          <path d="M 65.147 66.35 L 57.037 71.03 C 57.647 71.87 58.377 72.62 59.217 73.23 L 68.147 68.09 L 65.147 66.35 Z" style="stroke: rgb(0, 0, 0); fill: rgba(100, 231, 255, 0.93);"/>
          <path d="M 66.147 61.16 L 66.147 64.62 L 74.257 69.3 C 74.677 68.37 74.957 67.37 75.077 66.32 L 66.147 61.16 Z" style="stroke: rgb(0, 0, 0); fill: rgba(100, 231, 255, 0.93);"/>
          <path d="M 61.217 74.4 C 62.427 74.91 63.747 75.2 65.147 75.2 C 68.487 75.2 71.437 73.55 73.257 71.04 L 70.147 69.24 L 61.217 74.4 Z" style="stroke: rgb(0, 0, 0); fill: rgba(100, 231, 255, 0.93);"/>
          <path d="M 75.067 64.01 C 74.517 59.38 70.807 55.71 66.147 55.25 L 66.147 58.85 L 75.067 64.01 Z" style="stroke: rgb(0, 0, 0); fill: rgba(100, 231, 255, 0.93);"/>
          <path d="M 105.65 30.61 C 103.23 32.44 101.65 35.33 101.65 38.6 C 101.65 40.06 101.97 41.45 102.54 42.71 L 105.65 40.91 L 105.65 30.61 Z" style="stroke: rgb(0, 0, 0); fill: rgba(100, 231, 255, 0.93);"/>
          <path d="M 110.65 38.02 L 110.65 28.65 C 109.59 28.76 108.58 29.03 107.65 29.44 L 107.65 39.76 L 110.65 38.02 Z" style="stroke: rgb(0, 0, 0); fill: rgba(100, 231, 255, 0.93);"/>
          <path d="M 111.65 39.75 L 103.54 44.43 C 104.15 45.27 104.88 46.02 105.72 46.63 L 114.65 41.49 L 111.65 39.75 Z" style="stroke: rgb(0, 0, 0); fill: rgba(100, 231, 255, 0.93);"/>
          <path d="M 112.65 34.56 L 112.65 38.02 L 120.76 42.7 C 121.18 41.77 121.46 40.77 121.58 39.72 L 112.65 34.56 Z" style="stroke: rgb(0, 0, 0); fill: rgba(100, 231, 255, 0.93);"/>
          <path d="M 107.72 47.8 C 108.93 48.31 110.25 48.6 111.65 48.6 C 114.99 48.6 117.94 46.95 119.76 44.44 L 116.65 42.64 L 107.72 47.8 Z" style="stroke: rgb(0, 0, 0); fill: rgba(100, 231, 255, 0.93);"/>
          <path d="M 121.57 37.41 C 121.02 32.78 117.31 29.11 112.65 28.65 L 112.65 32.25 L 121.57 37.41 Z" style="stroke: rgb(0, 0, 0); fill: rgba(100, 231, 255, 0.93);"/>
          <path d="M 132.223 57.21 C 129.803 59.04 128.223 61.93 128.223 65.2 C 128.223 66.66 128.543 68.05 129.113 69.31 L 132.223 67.51 L 132.223 57.21 Z" style="stroke: rgb(0, 0, 0); fill: rgba(100, 231, 255, 0.93);"/>
          <path d="M 137.223 64.62 L 137.223 55.25 C 136.163 55.36 135.153 55.63 134.223 56.04 L 134.223 66.36 L 137.223 64.62 Z" style="stroke: rgb(0, 0, 0); fill: rgba(100, 231, 255, 0.93);"/>
          <path d="M 138.223 66.35 L 130.113 71.03 C 130.723 71.87 131.453 72.62 132.293 73.23 L 141.223 68.09 L 138.223 66.35 Z" style="stroke: rgb(0, 0, 0); fill: rgba(100, 231, 255, 0.93);"/>
          <path d="M 139.223 61.16 L 139.223 64.62 L 147.333 69.3 C 147.753 68.37 148.033 67.37 148.153 66.32 L 139.223 61.16 Z" style="stroke: rgb(0, 0, 0); fill: rgba(100, 231, 255, 0.93);"/>
          <path d="M 134.293 74.4 C 135.503 74.91 136.823 75.2 138.223 75.2 C 141.563 75.2 144.513 73.55 146.333 71.04 L 143.223 69.24 L 134.293 74.4 Z" style="stroke: rgb(0, 0, 0); fill: rgba(100, 231, 255, 0.93);"/>
          <path d="M 148.143 64.01 C 147.593 59.38 143.883 55.71 139.223 55.25 L 139.223 58.85 L 148.143 64.01 Z" style="stroke: rgb(0, 0, 0); fill: rgba(100, 231, 255, 0.93);"/>
          <path d="M 105.65 57.179 C 103.23 59.009 101.65 61.899 101.65 65.169 C 101.65 66.629 101.97 68.019 102.54 69.279 L 105.65 67.479 L 105.65 57.179 Z" style="stroke: rgb(0, 0, 0); fill: rgba(100, 231, 255, 0.93);"/>
          <path d="M 110.65 64.589 L 110.65 55.219 C 109.59 55.329 108.58 55.599 107.65 56.009 L 107.65 66.329 L 110.65 64.589 Z" style="stroke: rgb(0, 0, 0); fill: rgba(100, 231, 255, 0.93);"/>
          <path d="M 111.65 66.319 L 103.54 70.999 C 104.15 71.839 104.88 72.589 105.72 73.199 L 114.65 68.059 L 111.65 66.319 Z" style="stroke: rgb(0, 0, 0); fill: rgba(100, 231, 255, 0.93);"/>
          <path d="M 112.65 61.129 L 112.65 64.589 L 120.76 69.269 C 121.18 68.339 121.46 67.339 121.58 66.289 L 112.65 61.129 Z" style="stroke: rgb(0, 0, 0); fill: rgba(100, 231, 255, 0.93);"/>
          <path d="M 107.72 74.369 C 108.93 74.879 110.25 75.169 111.65 75.169 C 114.99 75.169 117.94 73.519 119.76 71.009 L 116.65 69.209 L 107.72 74.369 Z" style="stroke: rgb(0, 0, 0); fill: rgba(100, 231, 255, 0.93);"/>
          <path d="M 121.57 63.979 C 121.02 59.349 117.31 55.679 112.65 55.219 L 112.65 58.819 L 121.57 63.979 Z" style="stroke: rgb(0, 0, 0); fill: rgba(100, 231, 255, 0.93);"/>
          <path d="M 105.65 4.041 C 103.23 5.871 101.65 8.761 101.65 12.031 C 101.65 13.491 101.97 14.881 102.54 16.141 L 105.65 14.341 L 105.65 4.041 Z" style="stroke: rgb(0, 0, 0); fill: rgba(100, 231, 255, 0.93);"/>
          <path d="M 110.65 11.451 L 110.65 2.081 C 109.59 2.191 108.58 2.461 107.65 2.871 L 107.65 13.191 L 110.65 11.451 Z" style="stroke: rgb(0, 0, 0); fill: rgba(100, 231, 255, 0.93);"/>
          <path d="M 111.65 13.181 L 103.54 17.861 C 104.15 18.701 104.88 19.451 105.72 20.061 L 114.65 14.921 L 111.65 13.181 Z" style="stroke: rgb(0, 0, 0); fill: rgba(100, 231, 255, 0.93);"/>
          <path d="M 112.65 7.991 L 112.65 11.451 L 120.76 16.131 C 121.18 15.201 121.46 14.201 121.58 13.151 L 112.65 7.991 Z" style="stroke: rgb(0, 0, 0); fill: rgba(100, 231, 255, 0.93);"/>
          <path d="M 107.72 21.231 C 108.93 21.741 110.25 22.031 111.65 22.031 C 114.99 22.031 117.94 20.381 119.76 17.871 L 116.65 16.071 L 107.72 21.231 Z" style="stroke: rgb(0, 0, 0); fill: rgba(100, 231, 255, 0.93);"/>
          <path d="M 121.57 10.841 C 121.02 6.211 117.31 2.541 112.65 2.081 L 112.65 5.681 L 121.57 10.841 Z" style="stroke: rgb(0, 0, 0); fill: rgba(100, 231, 255, 0.93);"/>
          <path d="M 132.223 30.641 C 129.803 32.471 128.223 35.361 128.223 38.631 C 128.223 40.091 128.543 41.481 129.113 42.741 L 132.223 40.941 L 132.223 30.641 Z" style="stroke: rgb(0, 0, 0); fill: rgba(100, 231, 255, 0.93);"/>
          <path d="M 137.223 38.051 L 137.223 28.681 C 136.163 28.791 135.153 29.061 134.223 29.471 L 134.223 39.791 L 137.223 38.051 Z" style="stroke: rgb(0, 0, 0); fill: rgba(100, 231, 255, 0.93);"/>
          <path d="M 138.223 39.781 L 130.113 44.461 C 130.723 45.301 131.453 46.051 132.293 46.661 L 141.223 41.521 L 138.223 39.781 Z" style="stroke: rgb(0, 0, 0); fill: rgba(100, 231, 255, 0.93);"/>
          <path d="M 139.223 34.591 L 139.223 38.051 L 147.333 42.731 C 147.753 41.801 148.033 40.801 148.153 39.751 L 139.223 34.591 Z" style="stroke: rgb(0, 0, 0); fill: rgba(100, 231, 255, 0.93);"/>
          <path d="M 134.293 47.831 C 135.503 48.341 136.823 48.631 138.223 48.631 C 141.563 48.631 144.513 46.981 146.333 44.471 L 143.223 42.671 L 134.293 47.831 Z" style="stroke: rgb(0, 0, 0); fill: rgba(100, 231, 255, 0.93);"/>
          <path d="M 148.143 37.441 C 147.593 32.811 143.883 29.141 139.223 28.681 L 139.223 32.281 L 148.143 37.441 Z" style="stroke: rgb(0, 0, 0); fill: rgba(100, 231, 255, 0.93);"/>
          <path d="M 158.797 30.672 C 156.377 32.502 154.797 35.392 154.797 38.662 C 154.797 40.122 155.117 41.512 155.687 42.772 L 158.797 40.972 L 158.797 30.672 Z" style="stroke: rgb(0, 0, 0); fill: rgba(100, 231, 255, 0.93);"/>
          <path d="M 163.797 38.082 L 163.797 28.712 C 162.737 28.822 161.727 29.092 160.797 29.502 L 160.797 39.822 L 163.797 38.082 Z" style="stroke: rgb(0, 0, 0); fill: rgba(100, 231, 255, 0.93);"/>
          <path d="M 164.797 39.812 L 156.687 44.492 C 157.297 45.332 158.027 46.082 158.867 46.692 L 167.797 41.552 L 164.797 39.812 Z" style="stroke: rgb(0, 0, 0); fill: rgba(100, 231, 255, 0.93);"/>
          <path d="M 165.797 34.622 L 165.797 38.082 L 173.907 42.762 C 174.327 41.832 174.607 40.832 174.727 39.782 L 165.797 34.622 Z" style="stroke: rgb(0, 0, 0); fill: rgba(100, 231, 255, 0.93);"/>
          <path d="M 160.867 47.862 C 162.077 48.372 163.397 48.662 164.797 48.662 C 168.137 48.662 171.087 47.012 172.907 44.502 L 169.797 42.702 L 160.867 47.862 Z" style="stroke: rgb(0, 0, 0); fill: rgba(100, 231, 255, 0.93);"/>
          <path d="M 174.717 37.472 C 174.167 32.842 170.457 29.172 165.797 28.712 L 165.797 32.312 L 174.717 37.472 Z" style="stroke: rgb(0, 0, 0); fill: rgba(100, 231, 255, 0.93);"/>
          <path d="M 158.797 4.041 C 156.377 5.871 154.797 8.761 154.797 12.031 C 154.797 13.491 155.117 14.881 155.687 16.141 L 158.797 14.341 L 158.797 4.041 Z" style="stroke: rgb(0, 0, 0); fill: rgba(100, 231, 255, 0.93);"/>
          <path d="M 163.797 11.451 L 163.797 2.081 C 162.737 2.191 161.727 2.461 160.797 2.871 L 160.797 13.191 L 163.797 11.451 Z" style="stroke: rgb(0, 0, 0); fill: rgba(100, 231, 255, 0.93);"/>
          <path d="M 164.797 13.181 L 156.687 17.861 C 157.297 18.701 158.027 19.451 158.867 20.061 L 167.797 14.921 L 164.797 13.181 Z" style="stroke: rgb(0, 0, 0); fill: rgba(100, 231, 255, 0.93);"/>
          <path d="M 165.797 7.991 L 165.797 11.451 L 173.907 16.131 C 174.327 15.201 174.607 14.201 174.727 13.151 L 165.797 7.991 Z" style="stroke: rgb(0, 0, 0); fill: rgba(100, 231, 255, 0.93);"/>
          <path d="M 160.867 21.231 C 162.077 21.741 163.397 22.031 164.797 22.031 C 168.137 22.031 171.087 20.381 172.907 17.871 L 169.797 16.071 L 160.867 21.231 Z" style="stroke: rgb(0, 0, 0); fill: rgba(100, 231, 255, 0.93);"/>
          <path d="M 174.717 10.841 C 174.167 6.211 170.457 2.541 165.797 2.081 L 165.797 5.681 L 174.717 10.841 Z" style="stroke: rgb(0, 0, 0); fill: rgba(100, 231, 255, 0.93);"/>
          <path d="M 132.223 4.041 C 129.803 5.871 128.223 8.761 128.223 12.031 C 128.223 13.491 128.543 14.881 129.113 16.141 L 132.223 14.341 L 132.223 4.041 Z" style="stroke: rgb(0, 0, 0); fill: rgba(100, 231, 255, 0.93);"/>
          <path d="M 137.223 11.451 L 137.223 2.081 C 136.163 2.191 135.153 2.461 134.223 2.871 L 134.223 13.191 L 137.223 11.451 Z" style="stroke: rgb(0, 0, 0); fill: rgba(100, 231, 255, 0.93);"/>
          <path d="M 138.223 13.181 L 130.113 17.861 C 130.723 18.701 131.453 19.451 132.293 20.061 L 141.223 14.921 L 138.223 13.181 Z" style="stroke: rgb(0, 0, 0); fill: rgba(100, 231, 255, 0.93);"/>
          <path d="M 139.223 7.991 L 139.223 11.451 L 147.333 16.131 C 147.753 15.201 148.033 14.201 148.153 13.151 L 139.223 7.991 Z" style="stroke: rgb(0, 0, 0); fill: rgba(100, 231, 255, 0.93);"/>
          <path d="M 134.293 21.231 C 135.503 21.741 136.823 22.031 138.223 22.031 C 141.563 22.031 144.513 20.381 146.333 17.871 L 143.223 16.071 L 134.293 21.231 Z" style="stroke: rgb(0, 0, 0); fill: rgba(100, 231, 255, 0.93);"/>
          <path d="M 148.143 10.841 C 147.593 6.211 143.883 2.541 139.223 2.081 L 139.223 5.681 L 148.143 10.841 Z" style="stroke: rgb(0, 0, 0); fill: rgba(100, 231, 255, 0.93);"/>
          <path d="M 158.797 57.241 C 156.377 59.071 154.797 61.961 154.797 65.231 C 154.797 66.691 155.117 68.081 155.687 69.341 L 158.797 67.541 L 158.797 57.241 Z" style="stroke: rgb(0, 0, 0); fill: rgba(100, 231, 255, 0.93);"/>
          <path d="M 163.797 64.651 L 163.797 55.281 C 162.737 55.391 161.727 55.661 160.797 56.071 L 160.797 66.391 L 163.797 64.651 Z" style="stroke: rgb(0, 0, 0); fill: rgba(100, 231, 255, 0.93);"/>
          <path d="M 164.797 66.381 L 156.687 71.061 C 157.297 71.901 158.027 72.651 158.867 73.261 L 167.797 68.121 L 164.797 66.381 Z" style="stroke: rgb(0, 0, 0); fill: rgba(100, 231, 255, 0.93);"/>
          <path d="M 165.797 61.191 L 165.797 64.651 L 173.907 69.331 C 174.327 68.401 174.607 67.401 174.727 66.351 L 165.797 61.191 Z" style="stroke: rgb(0, 0, 0); fill: rgba(100, 231, 255, 0.93);"/>
          <path d="M 160.867 74.431 C 162.077 74.941 163.397 75.231 164.797 75.231 C 168.137 75.231 171.087 73.581 172.907 71.071 L 169.797 69.271 L 160.867 74.431 Z" style="stroke: rgb(0, 0, 0); fill: rgba(100, 231, 255, 0.93);"/>
          <path d="M 174.717 64.041 C 174.167 59.411 170.457 55.741 165.797 55.281 L 165.797 58.881 L 174.717 64.041 Z" style="stroke: rgb(0, 0, 0); fill: rgba(100, 231, 255, 0.93);"/>
        </g>
      </g>
    </g>
  </g>
  <g transform="matrix(2.007025, 0, 0, 2.005013, 72.652039, 225.95195)">
    <defs/>
    <g/>
    <g>
      <g/>
    </g>
  </g>
  <g transform="matrix(2.007025, 0, 0, 2.005013, 125.985443, 225.889771)">
    <defs/>
    <g/>
    <g>
      <g/>
    </g>
  </g>
  <g transform="matrix(2.007025, 0, 0, 2.005013, 179.318787, 225.95195)">
    <defs/>
    <g/>
    <g>
      <g/>
    </g>
  </g>
  <g transform="matrix(2.007025, 0, 0, 2.005013, 179.318787, 172.556442)">
    <defs/>
    <g/>
    <g>
      <g/>
    </g>
  </g>
  <g transform="matrix(2.007025, 0, 0, 2.005013, 125.985443, 172.556442)">
    <defs/>
    <g/>
    <g>
      <g/>
    </g>
  </g>
  <g transform="matrix(2.007025, 0, 0, 2.005013, 125.985443, 279.285309)">
    <defs/>
    <g/>
    <g>
      <g/>
    </g>
  </g>
  <g transform="matrix(2.007025, 0, 0, 2.005013, 72.652046, 279.223083)">
    <defs/>
    <g/>
    <g>
      <g/>
    </g>
  </g>
  <g transform="matrix(2.007025, 0, 0, 2.005013, 179.318787, 279.223083)">
    <defs/>
    <g/>
    <g>
      <g/>
    </g>
  </g>
  <g transform="matrix(2.007025, 0, 0, 2.005013, 272.652008, 225.889709)">
    <defs/>
    <g/>
    <g>
      <g/>
    </g>
  </g>
  <g transform="matrix(2.007025, 0, 0, 2.005013, 325.985413, 279.223083)">
    <defs/>
    <g/>
    <g>
      <g/>
    </g>
  </g>
  <g transform="matrix(2.007025, 0, 0, 2.005013, 272.652008, 279.160858)">
    <defs/>
    <g/>
    <g>
      <g/>
    </g>
  </g>
  <g transform="matrix(2.007025, 0, 0, 2.005013, 272.652008, 172.618668)">
    <defs/>
    <g/>
    <g>
      <g/>
    </g>
  </g>
  <g transform="matrix(2.007025, 0, 0, 2.005013, 325.985413, 225.951996)">
    <defs/>
    <g/>
    <g>
      <g/>
    </g>
  </g>
  <g transform="matrix(2.007025, 0, 0, 2.005013, 379.318756, 226.014175)">
    <defs/>
    <g/>
    <g>
      <g/>
    </g>
  </g>
  <g transform="matrix(2.007025, 0, 0, 2.005013, 379.318756, 172.618668)">
    <defs/>
    <g/>
    <g>
      <g/>
    </g>
  </g>
  <g transform="matrix(2.007025, 0, 0, 2.005013, 325.985413, 172.618668)">
    <defs/>
    <g/>
    <g>
      <g/>
    </g>
  </g>
  <g transform="matrix(2.007025, 0, 0, 2.005013, 379.318756, 279.285309)">
    <defs/>
    <g/>
    <g>
      <g/>
    </g>
  </g>
</svg>