<?xml version="1.0" encoding="utf-8"?>
<svg viewBox="0 0 500 500" xmlns="http://www.w3.org/2000/svg">
  <defs/>
  <g transform="matrix(2.007025, 0, 0, 2.005013, 253.516663, 167.578552)">
    <defs/>
    <g/>
    <g/>
  </g>
  <g transform="matrix(2.007025, 0, 0, 2.005013, 253.516663, 220.97406)">
    <defs/>
    <g/>
    <g>
      <g/>
    </g>
  </g>
  <g transform="matrix(2.007025, 0, 0, 2.005013, 306.850067, 220.91188)">
    <defs/>
    <g/>
    <g>
      <g/>
    </g>
  </g>
  <g transform="matrix(2.007025, 0, 0, 2.005013, 360.183411, 220.97406)">
    <defs/>
    <g/>
    <g>
      <g/>
    </g>
  </g>
  <g transform="matrix(2.007025, 0, 0, 2.005013, 360.183411, 167.578552)">
    <defs/>
    <g/>
    <g>
      <g/>
    </g>
  </g>
  <g transform="matrix(2.007025, 0, 0, 2.005013, 306.850067, 167.578552)">
    <defs/>
    <g/>
    <g>
      <g/>
    </g>
  </g>
  <g transform="matrix(2.007025, 0, 0, 2.005013, 306.850067, 274.307404)">
    <defs/>
    <g/>
    <g>
      <g/>
    </g>
  </g>
  <g transform="matrix(2.007025, 0, 0, 2.005013, 253.516663, 274.245178)">
    <defs/>
    <g/>
    <g>
      <g/>
    </g>
  </g>
  <g transform="matrix(2.007025, 0, 0, 2.005013, 360.183411, 274.245178)">
    <defs/>
    <g/>
    <g>
      <g/>
    </g>
  </g>
  <g transform="matrix(2.007025, 0, 0, 2.005013, 453.516632, 220.911819)">
    <defs/>
    <g/>
    <g>
      <g/>
    </g>
  </g>
  <g transform="matrix(2.007025, 0, 0, 2.005013, 506.850037, 274.245178)">
    <defs/>
    <g/>
    <g>
      <g/>
    </g>
  </g>
  <g transform="matrix(2.007025, 0, 0, 2.005013, 453.516632, 274.182953)">
    <defs/>
    <g/>
    <g>
      <g/>
    </g>
  </g>
  <g transform="matrix(2.007025, 0, 0, 2.005013, 453.516632, 167.640778)">
    <defs/>
    <g/>
    <g>
      <g/>
    </g>
  </g>
  <g transform="matrix(2.007025, 0, 0, 2.005013, 506.850037, 220.974106)">
    <defs/>
    <g/>
    <g>
      <g/>
    </g>
  </g>
  <g transform="matrix(2.007026, 0, 0, 2.005013, 560.18335, 221.036285)">
    <defs/>
    <g/>
    <g>
      <g/>
    </g>
  </g>
  <g transform="matrix(2.007026, 0, 0, 2.005013, 560.18335, 167.640778)">
    <defs/>
    <g/>
    <g>
      <g/>
    </g>
  </g>
  <g transform="matrix(2.007025, 0, 0, 2.005013, 506.850037, 167.640778)">
    <defs/>
    <g/>
    <g>
      <g/>
    </g>
  </g>
  <g transform="matrix(2.007026, 0, 0, 2.005013, 560.18335, 274.307404)">
    <defs/>
    <g/>
    <g>
      <g/>
    </g>
  </g>
  <rect style="paint-order: fill; stroke: rgb(0, 0, 0); fill: rgba(216, 216, 216, 0); stroke-width: 4px;" width="400" height="200" rx="10" ry="10" x="50" y="150"/>
  <line style="fill: rgb(216, 216, 216); stroke: rgb(0, 0, 0); stroke-linecap: round; stroke-width: 4px;" x1="250" y1="170" x2="250" y2="336.667"/>
  <ellipse style="stroke: rgb(0, 0, 0);" cx="83.333" rx="16.667" ry="16.667" cy="183.333"/>
  <ellipse style="stroke: rgb(0, 0, 0);" cx="150" rx="16.667" ry="16.667" cy="250"/>
  <ellipse style="stroke: rgb(0, 0, 0);" cx="216.667" rx="16.667" ry="16.667" cy="316.667"/>
  <ellipse style="stroke: rgb(0, 0, 0);" cx="283.333" rx="16.667" ry="16.667" cy="183.333"/>
  <ellipse style="stroke: rgb(0, 0, 0);" cx="350" rx="16.667" ry="16.667" cy="250"/>
  <ellipse style="stroke: rgb(0, 0, 0);" cx="416.667" rx="16.667" ry="16.667" cy="316.667"/>
</svg>