<?xml version="1.0" encoding="utf-8"?>
<svg viewBox="0 0 500 500" xmlns="http://www.w3.org/2000/svg">
  <defs/>
  <g transform="matrix(2.007025, 0, 0, 2.005013, 253.516663, 167.578552)">
    <defs/>
    <g/>
    <g/>
  </g>
  <g transform="matrix(2.007025, 0, 0, 2.005013, 253.516663, 220.97406)">
    <defs/>
    <g/>
    <g>
      <g/>
    </g>
  </g>
  <g transform="matrix(2.007025, 0, 0, 2.005013, 306.850067, 220.91188)">
    <defs/>
    <g/>
    <g>
      <g/>
    </g>
  </g>
  <g transform="matrix(2.007025, 0, 0, 2.005013, 360.183411, 220.97406)">
    <defs/>
    <g/>
    <g>
      <g/>
    </g>
  </g>
  <g transform="matrix(2.007025, 0, 0, 2.005013, 360.183411, 167.578552)">
    <defs/>
    <g/>
    <g>
      <g/>
    </g>
  </g>
  <g transform="matrix(2.007025, 0, 0, 2.005013, 306.850067, 167.578552)">
    <defs/>
    <g/>
    <g>
      <g/>
    </g>
  </g>
  <g transform="matrix(2.007025, 0, 0, 2.005013, 306.850067, 274.307404)">
    <defs/>
    <g/>
    <g>
      <g/>
    </g>
  </g>
  <g transform="matrix(2.007025, 0, 0, 2.005013, 253.516663, 274.245178)">
    <defs/>
    <g/>
    <g>
      <g/>
    </g>
  </g>
  <g transform="matrix(2.007025, 0, 0, 2.005013, 360.183411, 274.245178)">
    <defs/>
    <g/>
    <g>
      <g/>
    </g>
  </g>
  <g transform="matrix(2.007025, 0, 0, 2.005013, 453.516632, 220.911819)">
    <defs/>
    <g/>
    <g>
      <g/>
    </g>
  </g>
  <g transform="matrix(2.007025, 0, 0, 2.005013, 506.850037, 274.245178)">
    <defs/>
    <g/>
    <g>
      <g/>
    </g>
  </g>
  <g transform="matrix(2.007025, 0, 0, 2.005013, 453.516632, 274.182953)">
    <defs/>
    <g/>
    <g>
      <g/>
    </g>
  </g>
  <g transform="matrix(2.007025, 0, 0, 2.005013, 453.516632, 167.640778)">
    <defs/>
    <g/>
    <g>
      <g/>
    </g>
  </g>
  <g transform="matrix(2.007025, 0, 0, 2.005013, 506.850037, 220.974106)">
    <defs/>
    <g/>
    <g>
      <g/>
    </g>
  </g>
  <g transform="matrix(2.007026, 0, 0, 2.005013, 560.18335, 221.036285)">
    <defs/>
    <g/>
    <g>
      <g/>
    </g>
  </g>
  <g transform="matrix(2.007026, 0, 0, 2.005013, 560.18335, 167.640778)">
    <defs/>
    <g/>
    <g>
      <g/>
    </g>
  </g>
  <g transform="matrix(2.007025, 0, 0, 2.005013, 506.850037, 167.640778)">
    <defs/>
    <g/>
    <g>
      <g/>
    </g>
  </g>
  <g transform="matrix(2.007026, 0, 0, 2.005013, 560.18335, 274.307404)">
    <defs/>
    <g/>
    <g>
      <g/>
    </g>
  </g>
  <g transform="matrix(1, 0, 0, 1, 180.864624, -4.977897)">
    <g transform="matrix(2.007025, 0, 0, 2.005013, 72.652237, 172.556946)">
      <defs/>
    </g>
  </g>
  <g transform="matrix(2.007025, 0, 0, 2.005013, 253.516861, 220.974564)">
    <defs/>
    <g/>
    <g>
      <g/>
    </g>
  </g>
  <g transform="matrix(2.007025, 0, 0, 2.005013, 306.85025, 220.912384)">
    <defs/>
    <g/>
    <g>
      <g/>
    </g>
  </g>
  <g transform="matrix(2.007025, 0, 0, 2.005013, 360.183594, 220.974564)">
    <defs/>
    <g/>
    <g>
      <g/>
    </g>
  </g>
  <g transform="matrix(2.007025, 0, 0, 2.005013, 360.183594, 167.579056)">
    <defs/>
    <g/>
    <g>
      <g/>
    </g>
  </g>
  <g transform="matrix(2.007025, 0, 0, 2.005013, 306.85025, 167.579056)">
    <defs/>
    <g/>
    <g>
      <g/>
    </g>
  </g>
  <g transform="matrix(2.007025, 0, 0, 2.005013, 306.85025, 274.307892)">
    <defs/>
    <g/>
    <g>
      <g/>
    </g>
  </g>
  <g transform="matrix(2.007025, 0, 0, 2.005013, 253.516861, 274.245667)">
    <defs/>
    <g/>
    <g>
      <g/>
    </g>
  </g>
  <g transform="matrix(2.007025, 0, 0, 2.005013, 360.183594, 274.245667)">
    <defs/>
    <g/>
    <g>
      <g/>
    </g>
  </g>
  <g transform="matrix(2.007025, 0, 0, 2.005013, 453.516846, 220.912323)">
    <defs/>
    <g/>
    <g>
      <g/>
    </g>
  </g>
  <g transform="matrix(2.007025, 0, 0, 2.005013, 506.85022, 274.245667)">
    <defs/>
    <g/>
    <g>
      <g/>
    </g>
  </g>
  <g transform="matrix(2.007025, 0, 0, 2.005013, 453.516846, 274.183441)">
    <defs/>
    <g/>
    <g>
      <g/>
    </g>
  </g>
  <g transform="matrix(2.007025, 0, 0, 2.005013, 453.516846, 167.641281)">
    <defs/>
    <g/>
    <g>
      <g/>
    </g>
  </g>
  <g transform="matrix(2.007025, 0, 0, 2.005013, 506.85022, 220.974609)">
    <defs/>
    <g/>
    <g>
      <g/>
    </g>
  </g>
  <g transform="matrix(2.007025, 0, 0, 2.005013, 560.183533, 221.036789)">
    <defs/>
    <g/>
    <g>
      <g/>
    </g>
  </g>
  <g transform="matrix(2.007025, 0, 0, 2.005013, 560.183533, 167.641281)">
    <defs/>
    <g/>
    <g>
      <g/>
    </g>
  </g>
  <g transform="matrix(2.007025, 0, 0, 2.005013, 506.85022, 167.641281)">
    <defs/>
    <g/>
    <g>
      <g/>
    </g>
  </g>
  <g transform="matrix(2.007025, 0, 0, 2.005013, 560.183533, 274.307892)">
    <defs/>
    <g/>
    <g>
      <g/>
    </g>
  </g>
  <rect style="paint-order: fill; fill: rgb(223, 144, 144); stroke: rgba(158, 227, 122, 0.93); stroke-width: 4px;" width="400" height="200" rx="10" ry="10" x="50" y="150"/>
  <line style="fill: rgb(216, 216, 216); stroke-linecap: round; stroke: rgba(158, 227, 122, 0.93); stroke-width: 4px;" x1="250" y1="170" x2="250" y2="336.667"/>
  <g transform="matrix(2.007025, 0, 0, 2.005013, 72.651779, 172.556076)">
    <defs/>
    <g/>
    <g>
      <g>
        <path d="M6,4.01C3.58,5.84,2,8.73,2,12c0,1.46,0.32,2.85,0.89,4.11L6,14.31V4.01z" style="stroke: rgba(0, 0, 0, 0.93); fill: rgba(0, 0, 0, 0.93);"/>
        <path d="M11,11.42V2.05C9.94,2.16,8.93,2.43,8,2.84v10.32L11,11.42z" style="stroke: rgba(0, 0, 0, 0.93); fill: rgba(0, 0, 0, 0.93);"/>
        <path d="M12,13.15l-8.11,4.68c0.61,0.84,1.34,1.59,2.18,2.2L15,14.89L12,13.15z" style="stroke: rgba(0, 0, 0, 0.93); fill: rgba(0, 0, 0, 0.93);"/>
        <path d="M13,7.96v3.46l8.11,4.68c0.42-0.93,0.7-1.93,0.82-2.98L13,7.96z" style="stroke: rgba(0, 0, 0, 0.93); fill: rgba(0, 0, 0, 0.93);"/>
        <path d="M8.07,21.2C9.28,21.71,10.6,22,12,22c3.34,0,6.29-1.65,8.11-4.16L17,16.04L8.07,21.2z" style="stroke: rgba(0, 0, 0, 0.93); fill: rgba(0, 0, 0, 0.93);"/>
        <path d="M21.92,10.81c-0.55-4.63-4.26-8.3-8.92-8.76v3.6L21.92,10.81z" style="stroke: rgba(0, 0, 0, 0.93); fill: rgba(0, 0, 0, 0.93);"/>
      </g>
    </g>
  </g>
  <g transform="matrix(2.007025, 0, 0, 2.005013, 72.651779, 225.951584)">
    <defs/>
    <g/>
    <g>
      <g>
        <path d="M6,4.01C3.58,5.84,2,8.73,2,12c0,1.46,0.32,2.85,0.89,4.11L6,14.31V4.01z" style="stroke: rgba(0, 0, 0, 0.93); fill: rgba(0, 0, 0, 0.93);"/>
        <path d="M11,11.42V2.05C9.94,2.16,8.93,2.43,8,2.84v10.32L11,11.42z" style="stroke: rgba(0, 0, 0, 0.93); fill: rgba(0, 0, 0, 0.93);"/>
        <path d="M12,13.15l-8.11,4.68c0.61,0.84,1.34,1.59,2.18,2.2L15,14.89L12,13.15z" style="stroke: rgba(0, 0, 0, 0.93); fill: rgba(0, 0, 0, 0.93);"/>
        <path d="M13,7.96v3.46l8.11,4.68c0.42-0.93,0.7-1.93,0.82-2.98L13,7.96z" style="stroke: rgba(0, 0, 0, 0.93); fill: rgba(0, 0, 0, 0.93);"/>
        <path d="M8.07,21.2C9.28,21.71,10.6,22,12,22c3.34,0,6.29-1.65,8.11-4.16L17,16.04L8.07,21.2z" style="stroke: rgba(0, 0, 0, 0.93); fill: rgba(0, 0, 0, 0.93);"/>
        <path d="M21.92,10.81c-0.55-4.63-4.26-8.3-8.92-8.76v3.6L21.92,10.81z" style="stroke: rgba(0, 0, 0, 0.93); fill: rgba(0, 0, 0, 0.93);"/>
      </g>
    </g>
  </g>
  <g transform="matrix(2.007025, 0, 0, 2.005013, 125.985184, 225.889404)">
    <defs/>
    <g/>
    <g>
      <g>
        <path d="M6,4.01C3.58,5.84,2,8.73,2,12c0,1.46,0.32,2.85,0.89,4.11L6,14.31V4.01z" style="stroke: rgba(0, 0, 0, 0.93); fill: rgba(0, 0, 0, 0.93);"/>
        <path d="M11,11.42V2.05C9.94,2.16,8.93,2.43,8,2.84v10.32L11,11.42z" style="stroke: rgba(0, 0, 0, 0.93); fill: rgba(0, 0, 0, 0.93);"/>
        <path d="M12,13.15l-8.11,4.68c0.61,0.84,1.34,1.59,2.18,2.2L15,14.89L12,13.15z" style="stroke: rgba(0, 0, 0, 0.93); fill: rgba(0, 0, 0, 0.93);"/>
        <path d="M13,7.96v3.46l8.11,4.68c0.42-0.93,0.7-1.93,0.82-2.98L13,7.96z" style="stroke: rgba(0, 0, 0, 0.93); fill: rgba(0, 0, 0, 0.93);"/>
        <path d="M8.07,21.2C9.28,21.71,10.6,22,12,22c3.34,0,6.29-1.65,8.11-4.16L17,16.04L8.07,21.2z" style="stroke: rgba(0, 0, 0, 0.93); fill: rgba(0, 0, 0, 0.93);"/>
        <path d="M21.92,10.81c-0.55-4.63-4.26-8.3-8.92-8.76v3.6L21.92,10.81z" style="stroke: rgba(0, 0, 0, 0.93); fill: rgba(0, 0, 0, 0.93);"/>
      </g>
    </g>
  </g>
  <g transform="matrix(2.007025, 0, 0, 2.005013, 179.318527, 225.951584)">
    <defs/>
    <g/>
    <g>
      <g>
        <path d="M6,4.01C3.58,5.84,2,8.73,2,12c0,1.46,0.32,2.85,0.89,4.11L6,14.31V4.01z" style="stroke: rgba(0, 0, 0, 0.93); fill: rgba(0, 0, 0, 0.93);"/>
        <path d="M11,11.42V2.05C9.94,2.16,8.93,2.43,8,2.84v10.32L11,11.42z" style="stroke: rgba(0, 0, 0, 0.93); fill: rgba(0, 0, 0, 0.93);"/>
        <path d="M12,13.15l-8.11,4.68c0.61,0.84,1.34,1.59,2.18,2.2L15,14.89L12,13.15z" style="stroke: rgba(0, 0, 0, 0.93); fill: rgba(0, 0, 0, 0.93);"/>
        <path d="M13,7.96v3.46l8.11,4.68c0.42-0.93,0.7-1.93,0.82-2.98L13,7.96z" style="stroke: rgba(0, 0, 0, 0.93); fill: rgba(0, 0, 0, 0.93);"/>
        <path d="M8.07,21.2C9.28,21.71,10.6,22,12,22c3.34,0,6.29-1.65,8.11-4.16L17,16.04L8.07,21.2z" style="stroke: rgba(0, 0, 0, 0.93); fill: rgba(0, 0, 0, 0.93);"/>
        <path d="M21.92,10.81c-0.55-4.63-4.26-8.3-8.92-8.76v3.6L21.92,10.81z" style="stroke: rgba(0, 0, 0, 0.93); fill: rgba(0, 0, 0, 0.93);"/>
      </g>
    </g>
  </g>
  <g transform="matrix(2.007025, 0, 0, 2.005013, 179.318527, 172.556076)">
    <defs/>
    <g/>
    <g>
      <g>
        <path d="M6,4.01C3.58,5.84,2,8.73,2,12c0,1.46,0.32,2.85,0.89,4.11L6,14.31V4.01z" style="stroke: rgba(0, 0, 0, 0.93); fill: rgba(0, 0, 0, 0.93);"/>
        <path d="M11,11.42V2.05C9.94,2.16,8.93,2.43,8,2.84v10.32L11,11.42z" style="stroke: rgba(0, 0, 0, 0.93); fill: rgba(0, 0, 0, 0.93);"/>
        <path d="M12,13.15l-8.11,4.68c0.61,0.84,1.34,1.59,2.18,2.2L15,14.89L12,13.15z" style="stroke: rgba(0, 0, 0, 0.93); fill: rgba(0, 0, 0, 0.93);"/>
        <path d="M13,7.96v3.46l8.11,4.68c0.42-0.93,0.7-1.93,0.82-2.98L13,7.96z" style="stroke: rgba(0, 0, 0, 0.93); fill: rgba(0, 0, 0, 0.93);"/>
        <path d="M8.07,21.2C9.28,21.71,10.6,22,12,22c3.34,0,6.29-1.65,8.11-4.16L17,16.04L8.07,21.2z" style="stroke: rgba(0, 0, 0, 0.93); fill: rgba(0, 0, 0, 0.93);"/>
        <path d="M21.92,10.81c-0.55-4.63-4.26-8.3-8.92-8.76v3.6L21.92,10.81z" style="stroke: rgba(0, 0, 0, 0.93); fill: rgba(0, 0, 0, 0.93);"/>
      </g>
    </g>
  </g>
  <g transform="matrix(2.007025, 0, 0, 2.005013, 125.985184, 172.556076)">
    <defs/>
    <g/>
    <g>
      <g>
        <path d="M6,4.01C3.58,5.84,2,8.73,2,12c0,1.46,0.32,2.85,0.89,4.11L6,14.31V4.01z" style="stroke: rgba(0, 0, 0, 0.93); fill: rgba(0, 0, 0, 0.93);"/>
        <path d="M11,11.42V2.05C9.94,2.16,8.93,2.43,8,2.84v10.32L11,11.42z" style="stroke: rgba(0, 0, 0, 0.93); fill: rgba(0, 0, 0, 0.93);"/>
        <path d="M12,13.15l-8.11,4.68c0.61,0.84,1.34,1.59,2.18,2.2L15,14.89L12,13.15z" style="stroke: rgba(0, 0, 0, 0.93); fill: rgba(0, 0, 0, 0.93);"/>
        <path d="M13,7.96v3.46l8.11,4.68c0.42-0.93,0.7-1.93,0.82-2.98L13,7.96z" style="stroke: rgba(0, 0, 0, 0.93); fill: rgba(0, 0, 0, 0.93);"/>
        <path d="M8.07,21.2C9.28,21.71,10.6,22,12,22c3.34,0,6.29-1.65,8.11-4.16L17,16.04L8.07,21.2z" style="stroke: rgba(0, 0, 0, 0.93); fill: rgba(0, 0, 0, 0.93);"/>
        <path d="M21.92,10.81c-0.55-4.63-4.26-8.3-8.92-8.76v3.6L21.92,10.81z" style="stroke: rgba(0, 0, 0, 0.93); fill: rgba(0, 0, 0, 0.93);"/>
      </g>
    </g>
  </g>
  <g transform="matrix(2.007025, 0, 0, 2.005013, 125.985184, 279.284943)">
    <defs/>
    <g/>
    <g>
      <g>
        <path d="M6,4.01C3.58,5.84,2,8.73,2,12c0,1.46,0.32,2.85,0.89,4.11L6,14.31V4.01z" style="stroke: rgba(0, 0, 0, 0.93); fill: rgba(0, 0, 0, 0.93);"/>
        <path d="M11,11.42V2.05C9.94,2.16,8.93,2.43,8,2.84v10.32L11,11.42z" style="stroke: rgba(0, 0, 0, 0.93); fill: rgba(0, 0, 0, 0.93);"/>
        <path d="M12,13.15l-8.11,4.68c0.61,0.84,1.34,1.59,2.18,2.2L15,14.89L12,13.15z" style="stroke: rgba(0, 0, 0, 0.93); fill: rgba(0, 0, 0, 0.93);"/>
        <path d="M13,7.96v3.46l8.11,4.68c0.42-0.93,0.7-1.93,0.82-2.98L13,7.96z" style="stroke: rgba(0, 0, 0, 0.93); fill: rgba(0, 0, 0, 0.93);"/>
        <path d="M8.07,21.2C9.28,21.71,10.6,22,12,22c3.34,0,6.29-1.65,8.11-4.16L17,16.04L8.07,21.2z" style="stroke: rgba(0, 0, 0, 0.93); fill: rgba(0, 0, 0, 0.93);"/>
        <path d="M21.92,10.81c-0.55-4.63-4.26-8.3-8.92-8.76v3.6L21.92,10.81z" style="stroke: rgba(0, 0, 0, 0.93); fill: rgba(0, 0, 0, 0.93);"/>
      </g>
    </g>
  </g>
  <g transform="matrix(2.007025, 0, 0, 2.005013, 72.651779, 279.222687)">
    <defs/>
    <g/>
    <g>
      <g>
        <path d="M6,4.01C3.58,5.84,2,8.73,2,12c0,1.46,0.32,2.85,0.89,4.11L6,14.31V4.01z" style="stroke: rgba(0, 0, 0, 0.93); fill: rgba(0, 0, 0, 0.93);"/>
        <path d="M11,11.42V2.05C9.94,2.16,8.93,2.43,8,2.84v10.32L11,11.42z" style="stroke: rgba(0, 0, 0, 0.93); fill: rgba(0, 0, 0, 0.93);"/>
        <path d="M12,13.15l-8.11,4.68c0.61,0.84,1.34,1.59,2.18,2.2L15,14.89L12,13.15z" style="stroke: rgba(0, 0, 0, 0.93); fill: rgba(0, 0, 0, 0.93);"/>
        <path d="M13,7.96v3.46l8.11,4.68c0.42-0.93,0.7-1.93,0.82-2.98L13,7.96z" style="stroke: rgba(0, 0, 0, 0.93); fill: rgba(0, 0, 0, 0.93);"/>
        <path d="M8.07,21.2C9.28,21.71,10.6,22,12,22c3.34,0,6.29-1.65,8.11-4.16L17,16.04L8.07,21.2z" style="stroke: rgba(0, 0, 0, 0.93); fill: rgba(0, 0, 0, 0.93);"/>
        <path d="M21.92,10.81c-0.55-4.63-4.26-8.3-8.92-8.76v3.6L21.92,10.81z" style="stroke: rgba(0, 0, 0, 0.93); fill: rgba(0, 0, 0, 0.93);"/>
      </g>
    </g>
  </g>
  <g transform="matrix(2.007025, 0, 0, 2.005013, 179.318527, 279.222687)">
    <defs/>
    <g/>
    <g>
      <g>
        <path d="M6,4.01C3.58,5.84,2,8.73,2,12c0,1.46,0.32,2.85,0.89,4.11L6,14.31V4.01z" style="stroke: rgba(0, 0, 0, 0.93); fill: rgba(0, 0, 0, 0.93);"/>
        <path d="M11,11.42V2.05C9.94,2.16,8.93,2.43,8,2.84v10.32L11,11.42z" style="stroke: rgba(0, 0, 0, 0.93); fill: rgba(0, 0, 0, 0.93);"/>
        <path d="M12,13.15l-8.11,4.68c0.61,0.84,1.34,1.59,2.18,2.2L15,14.89L12,13.15z" style="stroke: rgba(0, 0, 0, 0.93); fill: rgba(0, 0, 0, 0.93);"/>
        <path d="M13,7.96v3.46l8.11,4.68c0.42-0.93,0.7-1.93,0.82-2.98L13,7.96z" style="stroke: rgba(0, 0, 0, 0.93); fill: rgba(0, 0, 0, 0.93);"/>
        <path d="M8.07,21.2C9.28,21.71,10.6,22,12,22c3.34,0,6.29-1.65,8.11-4.16L17,16.04L8.07,21.2z" style="stroke: rgba(0, 0, 0, 0.93); fill: rgba(0, 0, 0, 0.93);"/>
        <path d="M21.92,10.81c-0.55-4.63-4.26-8.3-8.92-8.76v3.6L21.92,10.81z" style="stroke: rgba(0, 0, 0, 0.93); fill: rgba(0, 0, 0, 0.93);"/>
      </g>
    </g>
  </g>
  <g transform="matrix(2.007025, 0, 0, 2.005013, 272.651733, 225.889343)">
    <defs/>
    <g/>
    <g>
      <g>
        <path d="M6,4.01C3.58,5.84,2,8.73,2,12c0,1.46,0.32,2.85,0.89,4.11L6,14.31V4.01z" style="stroke: rgba(0, 0, 0, 0.93); fill: rgba(0, 0, 0, 0.93);"/>
        <path d="M11,11.42V2.05C9.94,2.16,8.93,2.43,8,2.84v10.32L11,11.42z" style="stroke: rgba(0, 0, 0, 0.93); fill: rgba(0, 0, 0, 0.93);"/>
        <path d="M12,13.15l-8.11,4.68c0.61,0.84,1.34,1.59,2.18,2.2L15,14.89L12,13.15z" style="stroke: rgba(0, 0, 0, 0.93); fill: rgba(0, 0, 0, 0.93);"/>
        <path d="M13,7.96v3.46l8.11,4.68c0.42-0.93,0.7-1.93,0.82-2.98L13,7.96z" style="stroke: rgba(0, 0, 0, 0.93); fill: rgba(0, 0, 0, 0.93);"/>
        <path d="M8.07,21.2C9.28,21.71,10.6,22,12,22c3.34,0,6.29-1.65,8.11-4.16L17,16.04L8.07,21.2z" style="stroke: rgba(0, 0, 0, 0.93); fill: rgba(0, 0, 0, 0.93);"/>
        <path d="M21.92,10.81c-0.55-4.63-4.26-8.3-8.92-8.76v3.6L21.92,10.81z" style="stroke: rgba(0, 0, 0, 0.93); fill: rgba(0, 0, 0, 0.93);"/>
      </g>
    </g>
  </g>
  <g transform="matrix(2.007025, 0, 0, 2.005013, 325.985168, 279.222687)">
    <defs/>
    <g/>
    <g>
      <g>
        <path d="M6,4.01C3.58,5.84,2,8.73,2,12c0,1.46,0.32,2.85,0.89,4.11L6,14.31V4.01z" style="stroke: rgba(0, 0, 0, 0.93); fill: rgba(0, 0, 0, 0.93);"/>
        <path d="M11,11.42V2.05C9.94,2.16,8.93,2.43,8,2.84v10.32L11,11.42z" style="stroke: rgba(0, 0, 0, 0.93); fill: rgba(0, 0, 0, 0.93);"/>
        <path d="M12,13.15l-8.11,4.68c0.61,0.84,1.34,1.59,2.18,2.2L15,14.89L12,13.15z" style="stroke: rgba(0, 0, 0, 0.93); fill: rgba(0, 0, 0, 0.93);"/>
        <path d="M13,7.96v3.46l8.11,4.68c0.42-0.93,0.7-1.93,0.82-2.98L13,7.96z" style="stroke: rgba(0, 0, 0, 0.93); fill: rgba(0, 0, 0, 0.93);"/>
        <path d="M8.07,21.2C9.28,21.71,10.6,22,12,22c3.34,0,6.29-1.65,8.11-4.16L17,16.04L8.07,21.2z" style="stroke: rgba(0, 0, 0, 0.93); fill: rgba(0, 0, 0, 0.93);"/>
        <path d="M21.92,10.81c-0.55-4.63-4.26-8.3-8.92-8.76v3.6L21.92,10.81z" style="stroke: rgba(0, 0, 0, 0.93); fill: rgba(0, 0, 0, 0.93);"/>
      </g>
    </g>
  </g>
  <g transform="matrix(2.007025, 0, 0, 2.005013, 272.651733, 279.160492)">
    <defs/>
    <g/>
    <g>
      <g>
        <path d="M6,4.01C3.58,5.84,2,8.73,2,12c0,1.46,0.32,2.85,0.89,4.11L6,14.31V4.01z" style="stroke: rgba(0, 0, 0, 0.93); fill: rgba(0, 0, 0, 0.93);"/>
        <path d="M11,11.42V2.05C9.94,2.16,8.93,2.43,8,2.84v10.32L11,11.42z" style="stroke: rgba(0, 0, 0, 0.93); fill: rgba(0, 0, 0, 0.93);"/>
        <path d="M12,13.15l-8.11,4.68c0.61,0.84,1.34,1.59,2.18,2.2L15,14.89L12,13.15z" style="stroke: rgba(0, 0, 0, 0.93); fill: rgba(0, 0, 0, 0.93);"/>
        <path d="M13,7.96v3.46l8.11,4.68c0.42-0.93,0.7-1.93,0.82-2.98L13,7.96z" style="stroke: rgba(0, 0, 0, 0.93); fill: rgba(0, 0, 0, 0.93);"/>
        <path d="M8.07,21.2C9.28,21.71,10.6,22,12,22c3.34,0,6.29-1.65,8.11-4.16L17,16.04L8.07,21.2z" style="stroke: rgba(0, 0, 0, 0.93); fill: rgba(0, 0, 0, 0.93);"/>
        <path d="M21.92,10.81c-0.55-4.63-4.26-8.3-8.92-8.76v3.6L21.92,10.81z" style="stroke: rgba(0, 0, 0, 0.93); fill: rgba(0, 0, 0, 0.93);"/>
      </g>
    </g>
  </g>
  <g transform="matrix(2.007025, 0, 0, 2.005013, 272.651733, 172.618301)">
    <defs/>
    <g/>
    <g>
      <g>
        <path d="M6,4.01C3.58,5.84,2,8.73,2,12c0,1.46,0.32,2.85,0.89,4.11L6,14.31V4.01z" style="stroke: rgba(0, 0, 0, 0.93); fill: rgba(0, 0, 0, 0.93);"/>
        <path d="M11,11.42V2.05C9.94,2.16,8.93,2.43,8,2.84v10.32L11,11.42z" style="stroke: rgba(0, 0, 0, 0.93); fill: rgba(0, 0, 0, 0.93);"/>
        <path d="M12,13.15l-8.11,4.68c0.61,0.84,1.34,1.59,2.18,2.2L15,14.89L12,13.15z" style="stroke: rgba(0, 0, 0, 0.93); fill: rgba(0, 0, 0, 0.93);"/>
        <path d="M13,7.96v3.46l8.11,4.68c0.42-0.93,0.7-1.93,0.82-2.98L13,7.96z" style="stroke: rgba(0, 0, 0, 0.93); fill: rgba(0, 0, 0, 0.93);"/>
        <path d="M8.07,21.2C9.28,21.71,10.6,22,12,22c3.34,0,6.29-1.65,8.11-4.16L17,16.04L8.07,21.2z" style="stroke: rgba(0, 0, 0, 0.93); fill: rgba(0, 0, 0, 0.93);"/>
        <path d="M21.92,10.81c-0.55-4.63-4.26-8.3-8.92-8.76v3.6L21.92,10.81z" style="stroke: rgba(0, 0, 0, 0.93); fill: rgba(0, 0, 0, 0.93);"/>
      </g>
    </g>
  </g>
  <g transform="matrix(2.007025, 0, 0, 2.005013, 325.985168, 225.95163)">
    <defs/>
    <g/>
    <g>
      <g>
        <path d="M6,4.01C3.58,5.84,2,8.73,2,12c0,1.46,0.32,2.85,0.89,4.11L6,14.31V4.01z" style="stroke: rgba(0, 0, 0, 0.93); fill: rgba(0, 0, 0, 0.93);"/>
        <path d="M11,11.42V2.05C9.94,2.16,8.93,2.43,8,2.84v10.32L11,11.42z" style="stroke: rgba(0, 0, 0, 0.93); fill: rgba(0, 0, 0, 0.93);"/>
        <path d="M12,13.15l-8.11,4.68c0.61,0.84,1.34,1.59,2.18,2.2L15,14.89L12,13.15z" style="stroke: rgba(0, 0, 0, 0.93); fill: rgba(0, 0, 0, 0.93);"/>
        <path d="M13,7.96v3.46l8.11,4.68c0.42-0.93,0.7-1.93,0.82-2.98L13,7.96z" style="stroke: rgba(0, 0, 0, 0.93); fill: rgba(0, 0, 0, 0.93);"/>
        <path d="M8.07,21.2C9.28,21.71,10.6,22,12,22c3.34,0,6.29-1.65,8.11-4.16L17,16.04L8.07,21.2z" style="stroke: rgba(0, 0, 0, 0.93); fill: rgba(0, 0, 0, 0.93);"/>
        <path d="M21.92,10.81c-0.55-4.63-4.26-8.3-8.92-8.76v3.6L21.92,10.81z" style="stroke: rgba(0, 0, 0, 0.93); fill: rgba(0, 0, 0, 0.93);"/>
      </g>
    </g>
  </g>
  <g transform="matrix(2.007025, 0, 0, 2.005013, 379.318451, 226.013809)">
    <defs/>
    <g/>
    <g>
      <g>
        <path d="M6,4.01C3.58,5.84,2,8.73,2,12c0,1.46,0.32,2.85,0.89,4.11L6,14.31V4.01z" style="stroke: rgba(0, 0, 0, 0.93); fill: rgba(0, 0, 0, 0.93);"/>
        <path d="M11,11.42V2.05C9.94,2.16,8.93,2.43,8,2.84v10.32L11,11.42z" style="stroke: rgba(0, 0, 0, 0.93); fill: rgba(0, 0, 0, 0.93);"/>
        <path d="M12,13.15l-8.11,4.68c0.61,0.84,1.34,1.59,2.18,2.2L15,14.89L12,13.15z" style="stroke: rgba(0, 0, 0, 0.93); fill: rgba(0, 0, 0, 0.93);"/>
        <path d="M13,7.96v3.46l8.11,4.68c0.42-0.93,0.7-1.93,0.82-2.98L13,7.96z" style="stroke: rgba(0, 0, 0, 0.93); fill: rgba(0, 0, 0, 0.93);"/>
        <path d="M8.07,21.2C9.28,21.71,10.6,22,12,22c3.34,0,6.29-1.65,8.11-4.16L17,16.04L8.07,21.2z" style="stroke: rgba(0, 0, 0, 0.93); fill: rgba(0, 0, 0, 0.93);"/>
        <path d="M21.92,10.81c-0.55-4.63-4.26-8.3-8.92-8.76v3.6L21.92,10.81z" style="stroke: rgba(0, 0, 0, 0.93); fill: rgba(0, 0, 0, 0.93);"/>
      </g>
    </g>
  </g>
  <g transform="matrix(2.007025, 0, 0, 2.005013, 379.318451, 172.618301)">
    <defs/>
    <g/>
    <g>
      <g>
        <path d="M6,4.01C3.58,5.84,2,8.73,2,12c0,1.46,0.32,2.85,0.89,4.11L6,14.31V4.01z" style="stroke: rgba(0, 0, 0, 0.93); fill: rgba(0, 0, 0, 0.93);"/>
        <path d="M11,11.42V2.05C9.94,2.16,8.93,2.43,8,2.84v10.32L11,11.42z" style="stroke: rgba(0, 0, 0, 0.93); fill: rgba(0, 0, 0, 0.93);"/>
        <path d="M12,13.15l-8.11,4.68c0.61,0.84,1.34,1.59,2.18,2.2L15,14.89L12,13.15z" style="stroke: rgba(0, 0, 0, 0.93); fill: rgba(0, 0, 0, 0.93);"/>
        <path d="M13,7.96v3.46l8.11,4.68c0.42-0.93,0.7-1.93,0.82-2.98L13,7.96z" style="stroke: rgba(0, 0, 0, 0.93); fill: rgba(0, 0, 0, 0.93);"/>
        <path d="M8.07,21.2C9.28,21.71,10.6,22,12,22c3.34,0,6.29-1.65,8.11-4.16L17,16.04L8.07,21.2z" style="stroke: rgba(0, 0, 0, 0.93); fill: rgba(0, 0, 0, 0.93);"/>
        <path d="M21.92,10.81c-0.55-4.63-4.26-8.3-8.92-8.76v3.6L21.92,10.81z" style="stroke: rgba(0, 0, 0, 0.93); fill: rgba(0, 0, 0, 0.93);"/>
      </g>
    </g>
  </g>
  <g transform="matrix(2.007025, 0, 0, 2.005013, 325.985168, 172.618301)">
    <defs/>
    <g/>
    <g>
      <g>
        <path d="M6,4.01C3.58,5.84,2,8.73,2,12c0,1.46,0.32,2.85,0.89,4.11L6,14.31V4.01z" style="stroke: rgba(0, 0, 0, 0.93); fill: rgba(0, 0, 0, 0.93);"/>
        <path d="M11,11.42V2.05C9.94,2.16,8.93,2.43,8,2.84v10.32L11,11.42z" style="stroke: rgba(0, 0, 0, 0.93); fill: rgba(0, 0, 0, 0.93);"/>
        <path d="M12,13.15l-8.11,4.68c0.61,0.84,1.34,1.59,2.18,2.2L15,14.89L12,13.15z" style="stroke: rgba(0, 0, 0, 0.93); fill: rgba(0, 0, 0, 0.93);"/>
        <path d="M13,7.96v3.46l8.11,4.68c0.42-0.93,0.7-1.93,0.82-2.98L13,7.96z" style="stroke: rgba(0, 0, 0, 0.93); fill: rgba(0, 0, 0, 0.93);"/>
        <path d="M8.07,21.2C9.28,21.71,10.6,22,12,22c3.34,0,6.29-1.65,8.11-4.16L17,16.04L8.07,21.2z" style="stroke: rgba(0, 0, 0, 0.93); fill: rgba(0, 0, 0, 0.93);"/>
        <path d="M21.92,10.81c-0.55-4.63-4.26-8.3-8.92-8.76v3.6L21.92,10.81z" style="stroke: rgba(0, 0, 0, 0.93); fill: rgba(0, 0, 0, 0.93);"/>
      </g>
    </g>
  </g>
  <g transform="matrix(2.007025, 0, 0, 2.005013, 379.318451, 279.284943)">
    <defs/>
    <g/>
    <g>
      <g>
        <path d="M6,4.01C3.58,5.84,2,8.73,2,12c0,1.46,0.32,2.85,0.89,4.11L6,14.31V4.01z" style="stroke: rgba(0, 0, 0, 0.93); fill: rgba(0, 0, 0, 0.93);"/>
        <path d="M11,11.42V2.05C9.94,2.16,8.93,2.43,8,2.84v10.32L11,11.42z" style="stroke: rgba(0, 0, 0, 0.93); fill: rgba(0, 0, 0, 0.93);"/>
        <path d="M12,13.15l-8.11,4.68c0.61,0.84,1.34,1.59,2.18,2.2L15,14.89L12,13.15z" style="stroke: rgba(0, 0, 0, 0.93); fill: rgba(0, 0, 0, 0.93);"/>
        <path d="M13,7.96v3.46l8.11,4.68c0.42-0.93,0.7-1.93,0.82-2.98L13,7.96z" style="stroke: rgba(0, 0, 0, 0.93); fill: rgba(0, 0, 0, 0.93);"/>
        <path d="M8.07,21.2C9.28,21.71,10.6,22,12,22c3.34,0,6.29-1.65,8.11-4.16L17,16.04L8.07,21.2z" style="stroke: rgba(0, 0, 0, 0.93); fill: rgba(0, 0, 0, 0.93);"/>
        <path d="M21.92,10.81c-0.55-4.63-4.26-8.3-8.92-8.76v3.6L21.92,10.81z" style="stroke: rgba(0, 0, 0, 0.93); fill: rgba(0, 0, 0, 0.93);"/>
      </g>
    </g>
  </g>
</svg>