<?xml version="1.0" encoding="utf-8"?>
<svg viewBox="0 0 500 500" xmlns="http://www.w3.org/2000/svg" xmlns:xlink="http://www.w3.org/1999/xlink">
  <defs>
    <linearGradient id="gradient-4-14" gradientUnits="userSpaceOnUse" x1="7.49" y1="1.07" x2="7.49" y2="13.93" gradientTransform="matrix(0.66977, -0.742569, 0.767814, 0.660278, -3.060798, 7.678648)" xlink:href="#gradient-4"/>
    <linearGradient id="gradient-4">
      <stop offset="0" style="stop-color: rgba(225, 77, 77, 0.93);"/>
      <stop offset="0.142" style="stop-color: rgba(216, 91, 31, 0.937);"/>
      <stop offset="0.284" style="stop-color: rgba(227, 239, 40, 0.85);"/>
      <stop offset="0.426" style="stop-color: rgba(63, 205, 33, 0.898);"/>
      <stop offset="0.568" style="stop-color: rgba(40, 205, 239, 0.875);"/>
      <stop offset="0.71" style="stop-color: rgba(62, 40, 239, 0.882);"/>
      <stop offset="0.852" style="stop-color: rgba(177, 40, 239, 0.882);"/>
      <stop offset="1" style="stop-color: rgb(239, 40, 214);"/>
    </linearGradient>
    <linearGradient id="gradient-4-15" gradientUnits="userSpaceOnUse" x1="7.49" y1="1.07" x2="7.49" y2="13.93" gradientTransform="matrix(0.66977, -0.742569, 0.767814, 0.660278, -3.060798, 7.678648)" xlink:href="#gradient-4"/>
    <linearGradient id="gradient-4-16" gradientUnits="userSpaceOnUse" x1="7.49" y1="1.07" x2="7.49" y2="13.93" gradientTransform="matrix(0.66977, -0.742569, 0.767814, 0.660278, -3.060798, 7.678648)" xlink:href="#gradient-4"/>
    <linearGradient id="gradient-4-17" gradientUnits="userSpaceOnUse" x1="7.49" y1="1.07" x2="7.49" y2="13.93" gradientTransform="matrix(0.66977, -0.742569, 0.767814, 0.660278, -3.060798, 7.678648)" xlink:href="#gradient-4"/>
    <linearGradient id="gradient-4-18" gradientUnits="userSpaceOnUse" x1="7.49" y1="1.07" x2="7.49" y2="13.93" gradientTransform="matrix(0.66977, -0.742569, 0.767814, 0.660278, -3.060798, 7.678648)" xlink:href="#gradient-4"/>
    <linearGradient id="gradient-4-19" gradientUnits="userSpaceOnUse" x1="7.49" y1="1.07" x2="7.49" y2="13.93" gradientTransform="matrix(0.66977, -0.742569, 0.767814, 0.660278, -3.060798, 7.678648)" xlink:href="#gradient-4"/>
    <linearGradient id="gradient-4-1" gradientUnits="userSpaceOnUse" x1="7.49" y1="1.07" x2="7.49" y2="13.93" gradientTransform="matrix(0.66977, -0.742569, 0.767814, 0.660278, -3.060798, 7.678648)" xlink:href="#gradient-4"/>
    <linearGradient id="gradient-4-2" gradientUnits="userSpaceOnUse" x1="7.49" y1="1.07" x2="7.49" y2="13.93" gradientTransform="matrix(0.66977, -0.742569, 0.767814, 0.660278, -3.060798, 7.678648)" xlink:href="#gradient-4"/>
    <linearGradient id="gradient-4-3" gradientUnits="userSpaceOnUse" x1="7.49" y1="1.07" x2="7.49" y2="13.93" gradientTransform="matrix(0.66977, -0.742569, 0.767814, 0.660278, -3.060798, 7.678648)" xlink:href="#gradient-4"/>
    <linearGradient id="gradient-4-4" gradientUnits="userSpaceOnUse" x1="7.49" y1="1.07" x2="7.49" y2="13.93" gradientTransform="matrix(0.66977, -0.742569, 0.767814, 0.660278, -3.060798, 7.678648)" xlink:href="#gradient-4"/>
    <linearGradient id="gradient-4-5" gradientUnits="userSpaceOnUse" x1="7.49" y1="1.07" x2="7.49" y2="13.93" gradientTransform="matrix(0.66977, -0.742569, 0.767814, 0.660278, -3.060798, 7.678648)" xlink:href="#gradient-4"/>
    <linearGradient id="gradient-4-6" gradientUnits="userSpaceOnUse" x1="7.49" y1="1.07" x2="7.49" y2="13.93" gradientTransform="matrix(0.66977, -0.742569, 0.767814, 0.660278, -3.060798, 7.678648)" xlink:href="#gradient-4"/>
    <linearGradient id="gradient-4-7" gradientUnits="userSpaceOnUse" x1="7.49" y1="1.07" x2="7.49" y2="13.93" gradientTransform="matrix(0.66977, -0.742569, 0.767814, 0.660278, -3.060798, 7.678648)" xlink:href="#gradient-4"/>
    <linearGradient id="gradient-4-8" gradientUnits="userSpaceOnUse" x1="7.49" y1="1.07" x2="7.49" y2="13.93" gradientTransform="matrix(0.66977, -0.742569, 0.767814, 0.660278, -3.060798, 7.678648)" xlink:href="#gradient-4"/>
    <linearGradient id="gradient-4-9" gradientUnits="userSpaceOnUse" x1="7.49" y1="1.07" x2="7.49" y2="13.93" gradientTransform="matrix(0.66977, -0.742569, 0.767814, 0.660278, -3.060798, 7.678648)" xlink:href="#gradient-4"/>
    <linearGradient id="gradient-4-10" gradientUnits="userSpaceOnUse" x1="7.49" y1="1.07" x2="7.49" y2="13.93" gradientTransform="matrix(0.66977, -0.742569, 0.767814, 0.660278, -3.060798, 7.678648)" xlink:href="#gradient-4"/>
    <linearGradient id="gradient-4-11" gradientUnits="userSpaceOnUse" x1="7.49" y1="1.07" x2="7.49" y2="13.93" gradientTransform="matrix(0.66977, -0.742569, 0.767814, 0.660278, -3.060798, 7.678648)" xlink:href="#gradient-4"/>
    <linearGradient id="gradient-4-12" gradientUnits="userSpaceOnUse" x1="7.49" y1="1.07" x2="7.49" y2="13.93" gradientTransform="matrix(0.66977, -0.742569, 0.767814, 0.660278, -3.060798, 7.678648)" xlink:href="#gradient-4"/>
  </defs>
  <rect style="paint-order: fill; fill: rgba(217, 1, 158, 0); stroke: rgba(5, 5, 5, 0.93); stroke-width: 4px;" width="400" height="200" rx="10" ry="10" x="50" y="150"/>
  <line style="fill: rgb(216, 216, 216); stroke-linecap: round; stroke: rgba(5, 5, 5, 0.93); stroke-width: 4px;" x1="250" y1="170" x2="250" y2="336.667"/>
  <g transform="matrix(3.115264, 0, 0, 3.115264, -1219.189697, 129.343353)" style="transform-origin: -730.81px -46.01px;">
    <defs/>
    <path id="path-9" d="M13.91,7.94a5.9086,5.9086,0,0,1-.13.94,8.8218,8.8218,0,0,0-2.17-1.49,8.89,8.89,0,0,0-1.4-.56,8.6142,8.6142,0,0,0-1.82-.35.221.221,0,0,0-.08-.01A7.32,7.32,0,0,1,7.5,4.59c-.01-.01-.01-.01,0-.02a7.7573,7.7573,0,0,1,1.52.15,7.0987,7.0987,0,0,1,1.56.5,6.8585,6.8585,0,0,1,1.4.78A7.4165,7.4165,0,0,1,13.91,7.94Zm-1.87-5a6.2232,6.2232,0,0,0-1.85-1.27,4.2725,4.2725,0,0,0-.98-.36,5.6412,5.6412,0,0,0-1.55-.23,1.2882,1.2882,0,0,0-.32,0A7.4263,7.4263,0,0,0,7.21,2.5c0,.2.01.39.02.58a2.28,2.28,0,0,1,.26-.01,2.6438,2.6438,0,0,1,.28.01,8.2865,8.2865,0,0,1,1.49.16,8.9879,8.9879,0,0,1,1.35.37,8.7922,8.7922,0,0,1,1.53.7,10.18,10.18,0,0,1,1.39.97A6.4588,6.4588,0,0,0,12.04,2.94ZM4.01,8.76a9.4084,9.4084,0,0,1-.62-1.37,9.1038,9.1038,0,0,1-.37-1.41,9.1748,9.1748,0,0,1-.16-1.67V4.28a8.455,8.455,0,0,1,.1-1.34A6.28,6.28,0,0,0,1.47,5.3a6.2222,6.2222,0,0,0-.4,2.2c0,.15.01.3.02.44a5.9086,5.9086,0,0,0,.13.94,5.7343,5.7343,0,0,0,.41,1.23c.22-.05.44-.11.65-.17a8.0188,8.0188,0,0,0,1.9-.88C4.12,8.96,4.06,8.86,4.01,8.76Zm2.6-2.28a9,9,0,0,1-.63-1.76,9.135,9.135,0,0,1-.24-1.48c-.02-.25-.03-.49-.03-.74a9.3777,9.3777,0,0,1,.08-1.19,4.2725,4.2725,0,0,0-.98.36,7.7038,7.7038,0,0,0-.42,1.94c-.02.22-.03.44-.03.67a7.2659,7.2659,0,0,0,.06.93,7.4258,7.4258,0,0,0,.37,1.63,6.4705,6.4705,0,0,0,.59,1.28A8.0174,8.0174,0,0,0,6.65,6.55.2522.2522,0,0,1,6.61,6.48ZM12.7,9.93s0-.01-.01,0a7.0128,7.0128,0,0,0-1.7-1.16c-.06.1-.11.19-.17.29a8.783,8.783,0,0,1-.88,1.22,8.9125,8.9125,0,0,1-1.06,1.07,10.4181,10.4181,0,0,1-1.38.98,8.9933,8.9933,0,0,1-2.64,1.02,6.2985,6.2985,0,0,0,5.28,0,5.9674,5.9674,0,0,0,2.42-1.89,4.8258,4.8258,0,0,0,.65-1.03A6.0315,6.0315,0,0,0,12.7,9.93Zm-5.17-2c-.01.01-.02.03-.03.04a9.26,9.26,0,0,1-1.25,1.4,9.5925,9.5925,0,0,1-1.19.91,9.2683,9.2683,0,0,1-2.62,1.18,6.0989,6.0989,0,0,0,.53.61,7.7353,7.7353,0,0,0,3.15-.72,7.3839,7.3839,0,0,0,1.38-.82A7.6429,7.6429,0,0,0,8.75,9.37a7.7441,7.7441,0,0,0,.82-1.15A7.3414,7.3414,0,0,0,7.53,7.93Z" style="fill: url('#gradient-4-14'); stroke: rgba(5, 5, 5, 0.93); stroke-width: 0.428px;"/>
  </g>
  <g transform="matrix(3.115264, 0, 0, 3.115264, -1300.509766, 112.223343)" style="transform-origin: -649.49px -28.89px;">
    <defs/>
    <path id="path-10" d="M13.91,7.94a5.9086,5.9086,0,0,1-.13.94,8.8218,8.8218,0,0,0-2.17-1.49,8.89,8.89,0,0,0-1.4-.56,8.6142,8.6142,0,0,0-1.82-.35.221.221,0,0,0-.08-.01A7.32,7.32,0,0,1,7.5,4.59c-.01-.01-.01-.01,0-.02a7.7573,7.7573,0,0,1,1.52.15,7.0987,7.0987,0,0,1,1.56.5,6.8585,6.8585,0,0,1,1.4.78A7.4165,7.4165,0,0,1,13.91,7.94Zm-1.87-5a6.2232,6.2232,0,0,0-1.85-1.27,4.2725,4.2725,0,0,0-.98-.36,5.6412,5.6412,0,0,0-1.55-.23,1.2882,1.2882,0,0,0-.32,0A7.4263,7.4263,0,0,0,7.21,2.5c0,.2.01.39.02.58a2.28,2.28,0,0,1,.26-.01,2.6438,2.6438,0,0,1,.28.01,8.2865,8.2865,0,0,1,1.49.16,8.9879,8.9879,0,0,1,1.35.37,8.7922,8.7922,0,0,1,1.53.7,10.18,10.18,0,0,1,1.39.97A6.4588,6.4588,0,0,0,12.04,2.94ZM4.01,8.76a9.4084,9.4084,0,0,1-.62-1.37,9.1038,9.1038,0,0,1-.37-1.41,9.1748,9.1748,0,0,1-.16-1.67V4.28a8.455,8.455,0,0,1,.1-1.34A6.28,6.28,0,0,0,1.47,5.3a6.2222,6.2222,0,0,0-.4,2.2c0,.15.01.3.02.44a5.9086,5.9086,0,0,0,.13.94,5.7343,5.7343,0,0,0,.41,1.23c.22-.05.44-.11.65-.17a8.0188,8.0188,0,0,0,1.9-.88C4.12,8.96,4.06,8.86,4.01,8.76Zm2.6-2.28a9,9,0,0,1-.63-1.76,9.135,9.135,0,0,1-.24-1.48c-.02-.25-.03-.49-.03-.74a9.3777,9.3777,0,0,1,.08-1.19,4.2725,4.2725,0,0,0-.98.36,7.7038,7.7038,0,0,0-.42,1.94c-.02.22-.03.44-.03.67a7.2659,7.2659,0,0,0,.06.93,7.4258,7.4258,0,0,0,.37,1.63,6.4705,6.4705,0,0,0,.59,1.28A8.0174,8.0174,0,0,0,6.65,6.55.2522.2522,0,0,1,6.61,6.48ZM12.7,9.93s0-.01-.01,0a7.0128,7.0128,0,0,0-1.7-1.16c-.06.1-.11.19-.17.29a8.783,8.783,0,0,1-.88,1.22,8.9125,8.9125,0,0,1-1.06,1.07,10.4181,10.4181,0,0,1-1.38.98,8.9933,8.9933,0,0,1-2.64,1.02,6.2985,6.2985,0,0,0,5.28,0,5.9674,5.9674,0,0,0,2.42-1.89,4.8258,4.8258,0,0,0,.65-1.03A6.0315,6.0315,0,0,0,12.7,9.93Zm-5.17-2c-.01.01-.02.03-.03.04a9.26,9.26,0,0,1-1.25,1.4,9.5925,9.5925,0,0,1-1.19.91,9.2683,9.2683,0,0,1-2.62,1.18,6.0989,6.0989,0,0,0,.53.61,7.7353,7.7353,0,0,0,3.15-.72,7.3839,7.3839,0,0,0,1.38-.82A7.6429,7.6429,0,0,0,8.75,9.37a7.7441,7.7441,0,0,0,.82-1.15A7.3414,7.3414,0,0,0,7.53,7.93Z" style="fill: url('#gradient-4-15'); stroke: rgba(5, 5, 5, 0.93); stroke-width: 0.428px;"/>
  </g>
  <g transform="matrix(3.115264, 0, 0, 3.115264, -1283.389648, 129.343353)" style="transform-origin: -666.61px -46.01px;">
    <defs/>
    <path id="path-11" d="M13.91,7.94a5.9086,5.9086,0,0,1-.13.94,8.8218,8.8218,0,0,0-2.17-1.49,8.89,8.89,0,0,0-1.4-.56,8.6142,8.6142,0,0,0-1.82-.35.221.221,0,0,0-.08-.01A7.32,7.32,0,0,1,7.5,4.59c-.01-.01-.01-.01,0-.02a7.7573,7.7573,0,0,1,1.52.15,7.0987,7.0987,0,0,1,1.56.5,6.8585,6.8585,0,0,1,1.4.78A7.4165,7.4165,0,0,1,13.91,7.94Zm-1.87-5a6.2232,6.2232,0,0,0-1.85-1.27,4.2725,4.2725,0,0,0-.98-.36,5.6412,5.6412,0,0,0-1.55-.23,1.2882,1.2882,0,0,0-.32,0A7.4263,7.4263,0,0,0,7.21,2.5c0,.2.01.39.02.58a2.28,2.28,0,0,1,.26-.01,2.6438,2.6438,0,0,1,.28.01,8.2865,8.2865,0,0,1,1.49.16,8.9879,8.9879,0,0,1,1.35.37,8.7922,8.7922,0,0,1,1.53.7,10.18,10.18,0,0,1,1.39.97A6.4588,6.4588,0,0,0,12.04,2.94ZM4.01,8.76a9.4084,9.4084,0,0,1-.62-1.37,9.1038,9.1038,0,0,1-.37-1.41,9.1748,9.1748,0,0,1-.16-1.67V4.28a8.455,8.455,0,0,1,.1-1.34A6.28,6.28,0,0,0,1.47,5.3a6.2222,6.2222,0,0,0-.4,2.2c0,.15.01.3.02.44a5.9086,5.9086,0,0,0,.13.94,5.7343,5.7343,0,0,0,.41,1.23c.22-.05.44-.11.65-.17a8.0188,8.0188,0,0,0,1.9-.88C4.12,8.96,4.06,8.86,4.01,8.76Zm2.6-2.28a9,9,0,0,1-.63-1.76,9.135,9.135,0,0,1-.24-1.48c-.02-.25-.03-.49-.03-.74a9.3777,9.3777,0,0,1,.08-1.19,4.2725,4.2725,0,0,0-.98.36,7.7038,7.7038,0,0,0-.42,1.94c-.02.22-.03.44-.03.67a7.2659,7.2659,0,0,0,.06.93,7.4258,7.4258,0,0,0,.37,1.63,6.4705,6.4705,0,0,0,.59,1.28A8.0174,8.0174,0,0,0,6.65,6.55.2522.2522,0,0,1,6.61,6.48ZM12.7,9.93s0-.01-.01,0a7.0128,7.0128,0,0,0-1.7-1.16c-.06.1-.11.19-.17.29a8.783,8.783,0,0,1-.88,1.22,8.9125,8.9125,0,0,1-1.06,1.07,10.4181,10.4181,0,0,1-1.38.98,8.9933,8.9933,0,0,1-2.64,1.02,6.2985,6.2985,0,0,0,5.28,0,5.9674,5.9674,0,0,0,2.42-1.89,4.8258,4.8258,0,0,0,.65-1.03A6.0315,6.0315,0,0,0,12.7,9.93Zm-5.17-2c-.01.01-.02.03-.03.04a9.26,9.26,0,0,1-1.25,1.4,9.5925,9.5925,0,0,1-1.19.91,9.2683,9.2683,0,0,1-2.62,1.18,6.0989,6.0989,0,0,0,.53.61,7.7353,7.7353,0,0,0,3.15-.72,7.3839,7.3839,0,0,0,1.38-.82A7.6429,7.6429,0,0,0,8.75,9.37a7.7441,7.7441,0,0,0,.82-1.15A7.3414,7.3414,0,0,0,7.53,7.93Z" style="fill: url('#gradient-4-16'); stroke: rgba(5, 5, 5, 0.93); stroke-width: 0.428px;"/>
  </g>
  <g transform="matrix(3.115264, 0, 0, 3.115264, -1266.269775, 146.463364)" style="transform-origin: -683.73px -63.13px;">
    <defs/>
    <path id="path-12" d="M13.91,7.94a5.9086,5.9086,0,0,1-.13.94,8.8218,8.8218,0,0,0-2.17-1.49,8.89,8.89,0,0,0-1.4-.56,8.6142,8.6142,0,0,0-1.82-.35.221.221,0,0,0-.08-.01A7.32,7.32,0,0,1,7.5,4.59c-.01-.01-.01-.01,0-.02a7.7573,7.7573,0,0,1,1.52.15,7.0987,7.0987,0,0,1,1.56.5,6.8585,6.8585,0,0,1,1.4.78A7.4165,7.4165,0,0,1,13.91,7.94Zm-1.87-5a6.2232,6.2232,0,0,0-1.85-1.27,4.2725,4.2725,0,0,0-.98-.36,5.6412,5.6412,0,0,0-1.55-.23,1.2882,1.2882,0,0,0-.32,0A7.4263,7.4263,0,0,0,7.21,2.5c0,.2.01.39.02.58a2.28,2.28,0,0,1,.26-.01,2.6438,2.6438,0,0,1,.28.01,8.2865,8.2865,0,0,1,1.49.16,8.9879,8.9879,0,0,1,1.35.37,8.7922,8.7922,0,0,1,1.53.7,10.18,10.18,0,0,1,1.39.97A6.4588,6.4588,0,0,0,12.04,2.94ZM4.01,8.76a9.4084,9.4084,0,0,1-.62-1.37,9.1038,9.1038,0,0,1-.37-1.41,9.1748,9.1748,0,0,1-.16-1.67V4.28a8.455,8.455,0,0,1,.1-1.34A6.28,6.28,0,0,0,1.47,5.3a6.2222,6.2222,0,0,0-.4,2.2c0,.15.01.3.02.44a5.9086,5.9086,0,0,0,.13.94,5.7343,5.7343,0,0,0,.41,1.23c.22-.05.44-.11.65-.17a8.0188,8.0188,0,0,0,1.9-.88C4.12,8.96,4.06,8.86,4.01,8.76Zm2.6-2.28a9,9,0,0,1-.63-1.76,9.135,9.135,0,0,1-.24-1.48c-.02-.25-.03-.49-.03-.74a9.3777,9.3777,0,0,1,.08-1.19,4.2725,4.2725,0,0,0-.98.36,7.7038,7.7038,0,0,0-.42,1.94c-.02.22-.03.44-.03.67a7.2659,7.2659,0,0,0,.06.93,7.4258,7.4258,0,0,0,.37,1.63,6.4705,6.4705,0,0,0,.59,1.28A8.0174,8.0174,0,0,0,6.65,6.55.2522.2522,0,0,1,6.61,6.48ZM12.7,9.93s0-.01-.01,0a7.0128,7.0128,0,0,0-1.7-1.16c-.06.1-.11.19-.17.29a8.783,8.783,0,0,1-.88,1.22,8.9125,8.9125,0,0,1-1.06,1.07,10.4181,10.4181,0,0,1-1.38.98,8.9933,8.9933,0,0,1-2.64,1.02,6.2985,6.2985,0,0,0,5.28,0,5.9674,5.9674,0,0,0,2.42-1.89,4.8258,4.8258,0,0,0,.65-1.03A6.0315,6.0315,0,0,0,12.7,9.93Zm-5.17-2c-.01.01-.02.03-.03.04a9.26,9.26,0,0,1-1.25,1.4,9.5925,9.5925,0,0,1-1.19.91,9.2683,9.2683,0,0,1-2.62,1.18,6.0989,6.0989,0,0,0,.53.61,7.7353,7.7353,0,0,0,3.15-.72,7.3839,7.3839,0,0,0,1.38-.82A7.6429,7.6429,0,0,0,8.75,9.37a7.7441,7.7441,0,0,0,.82-1.15A7.3414,7.3414,0,0,0,7.53,7.93Z" style="fill: url('#gradient-4-17'); stroke: rgba(5, 5, 5, 0.93); stroke-width: 0.428px;"/>
  </g>
  <g transform="matrix(3.115264, 0, 0, 3.115264, -1202.069702, 146.463409)" style="transform-origin: -747.93px -63.13px;">
    <defs/>
    <path id="path-13" d="M13.91,7.94a5.9086,5.9086,0,0,1-.13.94,8.8218,8.8218,0,0,0-2.17-1.49,8.89,8.89,0,0,0-1.4-.56,8.6142,8.6142,0,0,0-1.82-.35.221.221,0,0,0-.08-.01A7.32,7.32,0,0,1,7.5,4.59c-.01-.01-.01-.01,0-.02a7.7573,7.7573,0,0,1,1.52.15,7.0987,7.0987,0,0,1,1.56.5,6.8585,6.8585,0,0,1,1.4.78A7.4165,7.4165,0,0,1,13.91,7.94Zm-1.87-5a6.2232,6.2232,0,0,0-1.85-1.27,4.2725,4.2725,0,0,0-.98-.36,5.6412,5.6412,0,0,0-1.55-.23,1.2882,1.2882,0,0,0-.32,0A7.4263,7.4263,0,0,0,7.21,2.5c0,.2.01.39.02.58a2.28,2.28,0,0,1,.26-.01,2.6438,2.6438,0,0,1,.28.01,8.2865,8.2865,0,0,1,1.49.16,8.9879,8.9879,0,0,1,1.35.37,8.7922,8.7922,0,0,1,1.53.7,10.18,10.18,0,0,1,1.39.97A6.4588,6.4588,0,0,0,12.04,2.94ZM4.01,8.76a9.4084,9.4084,0,0,1-.62-1.37,9.1038,9.1038,0,0,1-.37-1.41,9.1748,9.1748,0,0,1-.16-1.67V4.28a8.455,8.455,0,0,1,.1-1.34A6.28,6.28,0,0,0,1.47,5.3a6.2222,6.2222,0,0,0-.4,2.2c0,.15.01.3.02.44a5.9086,5.9086,0,0,0,.13.94,5.7343,5.7343,0,0,0,.41,1.23c.22-.05.44-.11.65-.17a8.0188,8.0188,0,0,0,1.9-.88C4.12,8.96,4.06,8.86,4.01,8.76Zm2.6-2.28a9,9,0,0,1-.63-1.76,9.135,9.135,0,0,1-.24-1.48c-.02-.25-.03-.49-.03-.74a9.3777,9.3777,0,0,1,.08-1.19,4.2725,4.2725,0,0,0-.98.36,7.7038,7.7038,0,0,0-.42,1.94c-.02.22-.03.44-.03.67a7.2659,7.2659,0,0,0,.06.93,7.4258,7.4258,0,0,0,.37,1.63,6.4705,6.4705,0,0,0,.59,1.28A8.0174,8.0174,0,0,0,6.65,6.55.2522.2522,0,0,1,6.61,6.48ZM12.7,9.93s0-.01-.01,0a7.0128,7.0128,0,0,0-1.7-1.16c-.06.1-.11.19-.17.29a8.783,8.783,0,0,1-.88,1.22,8.9125,8.9125,0,0,1-1.06,1.07,10.4181,10.4181,0,0,1-1.38.98,8.9933,8.9933,0,0,1-2.64,1.02,6.2985,6.2985,0,0,0,5.28,0,5.9674,5.9674,0,0,0,2.42-1.89,4.8258,4.8258,0,0,0,.65-1.03A6.0315,6.0315,0,0,0,12.7,9.93Zm-5.17-2c-.01.01-.02.03-.03.04a9.26,9.26,0,0,1-1.25,1.4,9.5925,9.5925,0,0,1-1.19.91,9.2683,9.2683,0,0,1-2.62,1.18,6.0989,6.0989,0,0,0,.53.61,7.7353,7.7353,0,0,0,3.15-.72,7.3839,7.3839,0,0,0,1.38-.82A7.6429,7.6429,0,0,0,8.75,9.37a7.7441,7.7441,0,0,0,.82-1.15A7.3414,7.3414,0,0,0,7.53,7.93Z" style="fill: url('#gradient-4-18'); stroke: rgba(5, 5, 5, 0.93); stroke-width: 0.428px;"/>
  </g>
  <g transform="matrix(3.115264, 0, 0, 3.115264, -1236.309814, 112.223343)" style="transform-origin: -713.69px -28.89px;">
    <defs/>
    <path id="path-14" d="M13.91,7.94a5.9086,5.9086,0,0,1-.13.94,8.8218,8.8218,0,0,0-2.17-1.49,8.89,8.89,0,0,0-1.4-.56,8.6142,8.6142,0,0,0-1.82-.35.221.221,0,0,0-.08-.01A7.32,7.32,0,0,1,7.5,4.59c-.01-.01-.01-.01,0-.02a7.7573,7.7573,0,0,1,1.52.15,7.0987,7.0987,0,0,1,1.56.5,6.8585,6.8585,0,0,1,1.4.78A7.4165,7.4165,0,0,1,13.91,7.94Zm-1.87-5a6.2232,6.2232,0,0,0-1.85-1.27,4.2725,4.2725,0,0,0-.98-.36,5.6412,5.6412,0,0,0-1.55-.23,1.2882,1.2882,0,0,0-.32,0A7.4263,7.4263,0,0,0,7.21,2.5c0,.2.01.39.02.58a2.28,2.28,0,0,1,.26-.01,2.6438,2.6438,0,0,1,.28.01,8.2865,8.2865,0,0,1,1.49.16,8.9879,8.9879,0,0,1,1.35.37,8.7922,8.7922,0,0,1,1.53.7,10.18,10.18,0,0,1,1.39.97A6.4588,6.4588,0,0,0,12.04,2.94ZM4.01,8.76a9.4084,9.4084,0,0,1-.62-1.37,9.1038,9.1038,0,0,1-.37-1.41,9.1748,9.1748,0,0,1-.16-1.67V4.28a8.455,8.455,0,0,1,.1-1.34A6.28,6.28,0,0,0,1.47,5.3a6.2222,6.2222,0,0,0-.4,2.2c0,.15.01.3.02.44a5.9086,5.9086,0,0,0,.13.94,5.7343,5.7343,0,0,0,.41,1.23c.22-.05.44-.11.65-.17a8.0188,8.0188,0,0,0,1.9-.88C4.12,8.96,4.06,8.86,4.01,8.76Zm2.6-2.28a9,9,0,0,1-.63-1.76,9.135,9.135,0,0,1-.24-1.48c-.02-.25-.03-.49-.03-.74a9.3777,9.3777,0,0,1,.08-1.19,4.2725,4.2725,0,0,0-.98.36,7.7038,7.7038,0,0,0-.42,1.94c-.02.22-.03.44-.03.67a7.2659,7.2659,0,0,0,.06.93,7.4258,7.4258,0,0,0,.37,1.63,6.4705,6.4705,0,0,0,.59,1.28A8.0174,8.0174,0,0,0,6.65,6.55.2522.2522,0,0,1,6.61,6.48ZM12.7,9.93s0-.01-.01,0a7.0128,7.0128,0,0,0-1.7-1.16c-.06.1-.11.19-.17.29a8.783,8.783,0,0,1-.88,1.22,8.9125,8.9125,0,0,1-1.06,1.07,10.4181,10.4181,0,0,1-1.38.98,8.9933,8.9933,0,0,1-2.64,1.02,6.2985,6.2985,0,0,0,5.28,0,5.9674,5.9674,0,0,0,2.42-1.89,4.8258,4.8258,0,0,0,.65-1.03A6.0315,6.0315,0,0,0,12.7,9.93Zm-5.17-2c-.01.01-.02.03-.03.04a9.26,9.26,0,0,1-1.25,1.4,9.5925,9.5925,0,0,1-1.19.91,9.2683,9.2683,0,0,1-2.62,1.18,6.0989,6.0989,0,0,0,.53.61,7.7353,7.7353,0,0,0,3.15-.72,7.3839,7.3839,0,0,0,1.38-.82A7.6429,7.6429,0,0,0,8.75,9.37a7.7441,7.7441,0,0,0,.82-1.15A7.3414,7.3414,0,0,0,7.53,7.93Z" style="fill: url('#gradient-4-19'); stroke: rgba(5, 5, 5, 0.93); stroke-width: 0.428px;"/>
  </g>
  <g transform="matrix(3.115264, 0, 0, 3.115264, -1202.069702, 93.130028)" style="transform-origin: -747.93px -63.13px;">
    <defs/>
    <path id="path-1" d="M13.91,7.94a5.9086,5.9086,0,0,1-.13.94,8.8218,8.8218,0,0,0-2.17-1.49,8.89,8.89,0,0,0-1.4-.56,8.6142,8.6142,0,0,0-1.82-.35.221.221,0,0,0-.08-.01A7.32,7.32,0,0,1,7.5,4.59c-.01-.01-.01-.01,0-.02a7.7573,7.7573,0,0,1,1.52.15,7.0987,7.0987,0,0,1,1.56.5,6.8585,6.8585,0,0,1,1.4.78A7.4165,7.4165,0,0,1,13.91,7.94Zm-1.87-5a6.2232,6.2232,0,0,0-1.85-1.27,4.2725,4.2725,0,0,0-.98-.36,5.6412,5.6412,0,0,0-1.55-.23,1.2882,1.2882,0,0,0-.32,0A7.4263,7.4263,0,0,0,7.21,2.5c0,.2.01.39.02.58a2.28,2.28,0,0,1,.26-.01,2.6438,2.6438,0,0,1,.28.01,8.2865,8.2865,0,0,1,1.49.16,8.9879,8.9879,0,0,1,1.35.37,8.7922,8.7922,0,0,1,1.53.7,10.18,10.18,0,0,1,1.39.97A6.4588,6.4588,0,0,0,12.04,2.94ZM4.01,8.76a9.4084,9.4084,0,0,1-.62-1.37,9.1038,9.1038,0,0,1-.37-1.41,9.1748,9.1748,0,0,1-.16-1.67V4.28a8.455,8.455,0,0,1,.1-1.34A6.28,6.28,0,0,0,1.47,5.3a6.2222,6.2222,0,0,0-.4,2.2c0,.15.01.3.02.44a5.9086,5.9086,0,0,0,.13.94,5.7343,5.7343,0,0,0,.41,1.23c.22-.05.44-.11.65-.17a8.0188,8.0188,0,0,0,1.9-.88C4.12,8.96,4.06,8.86,4.01,8.76Zm2.6-2.28a9,9,0,0,1-.63-1.76,9.135,9.135,0,0,1-.24-1.48c-.02-.25-.03-.49-.03-.74a9.3777,9.3777,0,0,1,.08-1.19,4.2725,4.2725,0,0,0-.98.36,7.7038,7.7038,0,0,0-.42,1.94c-.02.22-.03.44-.03.67a7.2659,7.2659,0,0,0,.06.93,7.4258,7.4258,0,0,0,.37,1.63,6.4705,6.4705,0,0,0,.59,1.28A8.0174,8.0174,0,0,0,6.65,6.55.2522.2522,0,0,1,6.61,6.48ZM12.7,9.93s0-.01-.01,0a7.0128,7.0128,0,0,0-1.7-1.16c-.06.1-.11.19-.17.29a8.783,8.783,0,0,1-.88,1.22,8.9125,8.9125,0,0,1-1.06,1.07,10.4181,10.4181,0,0,1-1.38.98,8.9933,8.9933,0,0,1-2.64,1.02,6.2985,6.2985,0,0,0,5.28,0,5.9674,5.9674,0,0,0,2.42-1.89,4.8258,4.8258,0,0,0,.65-1.03A6.0315,6.0315,0,0,0,12.7,9.93Zm-5.17-2c-.01.01-.02.03-.03.04a9.26,9.26,0,0,1-1.25,1.4,9.5925,9.5925,0,0,1-1.19.91,9.2683,9.2683,0,0,1-2.62,1.18,6.0989,6.0989,0,0,0,.53.61,7.7353,7.7353,0,0,0,3.15-.72,7.3839,7.3839,0,0,0,1.38-.82A7.6429,7.6429,0,0,0,8.75,9.37a7.7441,7.7441,0,0,0,.82-1.15A7.3414,7.3414,0,0,0,7.53,7.93Z" style="stroke: rgba(5, 5, 5, 0.93); stroke-width: 0.428px; fill: url('#gradient-4-1');"/>
  </g>
  <g transform="matrix(3.115264, 0, 0, 3.115264, -1202.069702, 39.796703)" style="transform-origin: -747.93px -63.13px;">
    <defs/>
    <path id="path-2" d="M13.91,7.94a5.9086,5.9086,0,0,1-.13.94,8.8218,8.8218,0,0,0-2.17-1.49,8.89,8.89,0,0,0-1.4-.56,8.6142,8.6142,0,0,0-1.82-.35.221.221,0,0,0-.08-.01A7.32,7.32,0,0,1,7.5,4.59c-.01-.01-.01-.01,0-.02a7.7573,7.7573,0,0,1,1.52.15,7.0987,7.0987,0,0,1,1.56.5,6.8585,6.8585,0,0,1,1.4.78A7.4165,7.4165,0,0,1,13.91,7.94Zm-1.87-5a6.2232,6.2232,0,0,0-1.85-1.27,4.2725,4.2725,0,0,0-.98-.36,5.6412,5.6412,0,0,0-1.55-.23,1.2882,1.2882,0,0,0-.32,0A7.4263,7.4263,0,0,0,7.21,2.5c0,.2.01.39.02.58a2.28,2.28,0,0,1,.26-.01,2.6438,2.6438,0,0,1,.28.01,8.2865,8.2865,0,0,1,1.49.16,8.9879,8.9879,0,0,1,1.35.37,8.7922,8.7922,0,0,1,1.53.7,10.18,10.18,0,0,1,1.39.97A6.4588,6.4588,0,0,0,12.04,2.94ZM4.01,8.76a9.4084,9.4084,0,0,1-.62-1.37,9.1038,9.1038,0,0,1-.37-1.41,9.1748,9.1748,0,0,1-.16-1.67V4.28a8.455,8.455,0,0,1,.1-1.34A6.28,6.28,0,0,0,1.47,5.3a6.2222,6.2222,0,0,0-.4,2.2c0,.15.01.3.02.44a5.9086,5.9086,0,0,0,.13.94,5.7343,5.7343,0,0,0,.41,1.23c.22-.05.44-.11.65-.17a8.0188,8.0188,0,0,0,1.9-.88C4.12,8.96,4.06,8.86,4.01,8.76Zm2.6-2.28a9,9,0,0,1-.63-1.76,9.135,9.135,0,0,1-.24-1.48c-.02-.25-.03-.49-.03-.74a9.3777,9.3777,0,0,1,.08-1.19,4.2725,4.2725,0,0,0-.98.36,7.7038,7.7038,0,0,0-.42,1.94c-.02.22-.03.44-.03.67a7.2659,7.2659,0,0,0,.06.93,7.4258,7.4258,0,0,0,.37,1.63,6.4705,6.4705,0,0,0,.59,1.28A8.0174,8.0174,0,0,0,6.65,6.55.2522.2522,0,0,1,6.61,6.48ZM12.7,9.93s0-.01-.01,0a7.0128,7.0128,0,0,0-1.7-1.16c-.06.1-.11.19-.17.29a8.783,8.783,0,0,1-.88,1.22,8.9125,8.9125,0,0,1-1.06,1.07,10.4181,10.4181,0,0,1-1.38.98,8.9933,8.9933,0,0,1-2.64,1.02,6.2985,6.2985,0,0,0,5.28,0,5.9674,5.9674,0,0,0,2.42-1.89,4.8258,4.8258,0,0,0,.65-1.03A6.0315,6.0315,0,0,0,12.7,9.93Zm-5.17-2c-.01.01-.02.03-.03.04a9.26,9.26,0,0,1-1.25,1.4,9.5925,9.5925,0,0,1-1.19.91,9.2683,9.2683,0,0,1-2.62,1.18,6.0989,6.0989,0,0,0,.53.61,7.7353,7.7353,0,0,0,3.15-.72,7.3839,7.3839,0,0,0,1.38-.82A7.6429,7.6429,0,0,0,8.75,9.37a7.7441,7.7441,0,0,0,.82-1.15A7.3414,7.3414,0,0,0,7.53,7.93Z" style="stroke: rgba(5, 5, 5, 0.93); stroke-width: 0.428px; fill: url('#gradient-4-2');"/>
  </g>
  <g transform="matrix(3.115264, 0, 0, 3.115264, -1255.402954, 39.796703)" style="transform-origin: -747.93px -63.13px;">
    <defs/>
    <path id="path-3" d="M13.91,7.94a5.9086,5.9086,0,0,1-.13.94,8.8218,8.8218,0,0,0-2.17-1.49,8.89,8.89,0,0,0-1.4-.56,8.6142,8.6142,0,0,0-1.82-.35.221.221,0,0,0-.08-.01A7.32,7.32,0,0,1,7.5,4.59c-.01-.01-.01-.01,0-.02a7.7573,7.7573,0,0,1,1.52.15,7.0987,7.0987,0,0,1,1.56.5,6.8585,6.8585,0,0,1,1.4.78A7.4165,7.4165,0,0,1,13.91,7.94Zm-1.87-5a6.2232,6.2232,0,0,0-1.85-1.27,4.2725,4.2725,0,0,0-.98-.36,5.6412,5.6412,0,0,0-1.55-.23,1.2882,1.2882,0,0,0-.32,0A7.4263,7.4263,0,0,0,7.21,2.5c0,.2.01.39.02.58a2.28,2.28,0,0,1,.26-.01,2.6438,2.6438,0,0,1,.28.01,8.2865,8.2865,0,0,1,1.49.16,8.9879,8.9879,0,0,1,1.35.37,8.7922,8.7922,0,0,1,1.53.7,10.18,10.18,0,0,1,1.39.97A6.4588,6.4588,0,0,0,12.04,2.94ZM4.01,8.76a9.4084,9.4084,0,0,1-.62-1.37,9.1038,9.1038,0,0,1-.37-1.41,9.1748,9.1748,0,0,1-.16-1.67V4.28a8.455,8.455,0,0,1,.1-1.34A6.28,6.28,0,0,0,1.47,5.3a6.2222,6.2222,0,0,0-.4,2.2c0,.15.01.3.02.44a5.9086,5.9086,0,0,0,.13.94,5.7343,5.7343,0,0,0,.41,1.23c.22-.05.44-.11.65-.17a8.0188,8.0188,0,0,0,1.9-.88C4.12,8.96,4.06,8.86,4.01,8.76Zm2.6-2.28a9,9,0,0,1-.63-1.76,9.135,9.135,0,0,1-.24-1.48c-.02-.25-.03-.49-.03-.74a9.3777,9.3777,0,0,1,.08-1.19,4.2725,4.2725,0,0,0-.98.36,7.7038,7.7038,0,0,0-.42,1.94c-.02.22-.03.44-.03.67a7.2659,7.2659,0,0,0,.06.93,7.4258,7.4258,0,0,0,.37,1.63,6.4705,6.4705,0,0,0,.59,1.28A8.0174,8.0174,0,0,0,6.65,6.55.2522.2522,0,0,1,6.61,6.48ZM12.7,9.93s0-.01-.01,0a7.0128,7.0128,0,0,0-1.7-1.16c-.06.1-.11.19-.17.29a8.783,8.783,0,0,1-.88,1.22,8.9125,8.9125,0,0,1-1.06,1.07,10.4181,10.4181,0,0,1-1.38.98,8.9933,8.9933,0,0,1-2.64,1.02,6.2985,6.2985,0,0,0,5.28,0,5.9674,5.9674,0,0,0,2.42-1.89,4.8258,4.8258,0,0,0,.65-1.03A6.0315,6.0315,0,0,0,12.7,9.93Zm-5.17-2c-.01.01-.02.03-.03.04a9.26,9.26,0,0,1-1.25,1.4,9.5925,9.5925,0,0,1-1.19.91,9.2683,9.2683,0,0,1-2.62,1.18,6.0989,6.0989,0,0,0,.53.61,7.7353,7.7353,0,0,0,3.15-.72,7.3839,7.3839,0,0,0,1.38-.82A7.6429,7.6429,0,0,0,8.75,9.37a7.7441,7.7441,0,0,0,.82-1.15A7.3414,7.3414,0,0,0,7.53,7.93Z" style="stroke: rgba(5, 5, 5, 0.93); stroke-width: 0.428px; fill: url('#gradient-4-3');"/>
  </g>
  <g transform="matrix(3.115264, 0, 0, 3.115264, -1308.73645, 93.130028)" style="transform-origin: -747.93px -63.13px;">
    <defs/>
    <path id="path-4" d="M13.91,7.94a5.9086,5.9086,0,0,1-.13.94,8.8218,8.8218,0,0,0-2.17-1.49,8.89,8.89,0,0,0-1.4-.56,8.6142,8.6142,0,0,0-1.82-.35.221.221,0,0,0-.08-.01A7.32,7.32,0,0,1,7.5,4.59c-.01-.01-.01-.01,0-.02a7.7573,7.7573,0,0,1,1.52.15,7.0987,7.0987,0,0,1,1.56.5,6.8585,6.8585,0,0,1,1.4.78A7.4165,7.4165,0,0,1,13.91,7.94Zm-1.87-5a6.2232,6.2232,0,0,0-1.85-1.27,4.2725,4.2725,0,0,0-.98-.36,5.6412,5.6412,0,0,0-1.55-.23,1.2882,1.2882,0,0,0-.32,0A7.4263,7.4263,0,0,0,7.21,2.5c0,.2.01.39.02.58a2.28,2.28,0,0,1,.26-.01,2.6438,2.6438,0,0,1,.28.01,8.2865,8.2865,0,0,1,1.49.16,8.9879,8.9879,0,0,1,1.35.37,8.7922,8.7922,0,0,1,1.53.7,10.18,10.18,0,0,1,1.39.97A6.4588,6.4588,0,0,0,12.04,2.94ZM4.01,8.76a9.4084,9.4084,0,0,1-.62-1.37,9.1038,9.1038,0,0,1-.37-1.41,9.1748,9.1748,0,0,1-.16-1.67V4.28a8.455,8.455,0,0,1,.1-1.34A6.28,6.28,0,0,0,1.47,5.3a6.2222,6.2222,0,0,0-.4,2.2c0,.15.01.3.02.44a5.9086,5.9086,0,0,0,.13.94,5.7343,5.7343,0,0,0,.41,1.23c.22-.05.44-.11.65-.17a8.0188,8.0188,0,0,0,1.9-.88C4.12,8.96,4.06,8.86,4.01,8.76Zm2.6-2.28a9,9,0,0,1-.63-1.76,9.135,9.135,0,0,1-.24-1.48c-.02-.25-.03-.49-.03-.74a9.3777,9.3777,0,0,1,.08-1.19,4.2725,4.2725,0,0,0-.98.36,7.7038,7.7038,0,0,0-.42,1.94c-.02.22-.03.44-.03.67a7.2659,7.2659,0,0,0,.06.93,7.4258,7.4258,0,0,0,.37,1.63,6.4705,6.4705,0,0,0,.59,1.28A8.0174,8.0174,0,0,0,6.65,6.55.2522.2522,0,0,1,6.61,6.48ZM12.7,9.93s0-.01-.01,0a7.0128,7.0128,0,0,0-1.7-1.16c-.06.1-.11.19-.17.29a8.783,8.783,0,0,1-.88,1.22,8.9125,8.9125,0,0,1-1.06,1.07,10.4181,10.4181,0,0,1-1.38.98,8.9933,8.9933,0,0,1-2.64,1.02,6.2985,6.2985,0,0,0,5.28,0,5.9674,5.9674,0,0,0,2.42-1.89,4.8258,4.8258,0,0,0,.65-1.03A6.0315,6.0315,0,0,0,12.7,9.93Zm-5.17-2c-.01.01-.02.03-.03.04a9.26,9.26,0,0,1-1.25,1.4,9.5925,9.5925,0,0,1-1.19.91,9.2683,9.2683,0,0,1-2.62,1.18,6.0989,6.0989,0,0,0,.53.61,7.7353,7.7353,0,0,0,3.15-.72,7.3839,7.3839,0,0,0,1.38-.82A7.6429,7.6429,0,0,0,8.75,9.37a7.7441,7.7441,0,0,0,.82-1.15A7.3414,7.3414,0,0,0,7.53,7.93Z" style="stroke: rgba(5, 5, 5, 0.93); stroke-width: 0.428px; fill: url('#gradient-4-4');"/>
  </g>
  <g transform="matrix(3.115264, 0, 0, 3.115264, -1308.73645, 146.463409)" style="transform-origin: -747.93px -63.13px;">
    <defs/>
    <path id="path-5" d="M13.91,7.94a5.9086,5.9086,0,0,1-.13.94,8.8218,8.8218,0,0,0-2.17-1.49,8.89,8.89,0,0,0-1.4-.56,8.6142,8.6142,0,0,0-1.82-.35.221.221,0,0,0-.08-.01A7.32,7.32,0,0,1,7.5,4.59c-.01-.01-.01-.01,0-.02a7.7573,7.7573,0,0,1,1.52.15,7.0987,7.0987,0,0,1,1.56.5,6.8585,6.8585,0,0,1,1.4.78A7.4165,7.4165,0,0,1,13.91,7.94Zm-1.87-5a6.2232,6.2232,0,0,0-1.85-1.27,4.2725,4.2725,0,0,0-.98-.36,5.6412,5.6412,0,0,0-1.55-.23,1.2882,1.2882,0,0,0-.32,0A7.4263,7.4263,0,0,0,7.21,2.5c0,.2.01.39.02.58a2.28,2.28,0,0,1,.26-.01,2.6438,2.6438,0,0,1,.28.01,8.2865,8.2865,0,0,1,1.49.16,8.9879,8.9879,0,0,1,1.35.37,8.7922,8.7922,0,0,1,1.53.7,10.18,10.18,0,0,1,1.39.97A6.4588,6.4588,0,0,0,12.04,2.94ZM4.01,8.76a9.4084,9.4084,0,0,1-.62-1.37,9.1038,9.1038,0,0,1-.37-1.41,9.1748,9.1748,0,0,1-.16-1.67V4.28a8.455,8.455,0,0,1,.1-1.34A6.28,6.28,0,0,0,1.47,5.3a6.2222,6.2222,0,0,0-.4,2.2c0,.15.01.3.02.44a5.9086,5.9086,0,0,0,.13.94,5.7343,5.7343,0,0,0,.41,1.23c.22-.05.44-.11.65-.17a8.0188,8.0188,0,0,0,1.9-.88C4.12,8.96,4.06,8.86,4.01,8.76Zm2.6-2.28a9,9,0,0,1-.63-1.76,9.135,9.135,0,0,1-.24-1.48c-.02-.25-.03-.49-.03-.74a9.3777,9.3777,0,0,1,.08-1.19,4.2725,4.2725,0,0,0-.98.36,7.7038,7.7038,0,0,0-.42,1.94c-.02.22-.03.44-.03.67a7.2659,7.2659,0,0,0,.06.93,7.4258,7.4258,0,0,0,.37,1.63,6.4705,6.4705,0,0,0,.59,1.28A8.0174,8.0174,0,0,0,6.65,6.55.2522.2522,0,0,1,6.61,6.48ZM12.7,9.93s0-.01-.01,0a7.0128,7.0128,0,0,0-1.7-1.16c-.06.1-.11.19-.17.29a8.783,8.783,0,0,1-.88,1.22,8.9125,8.9125,0,0,1-1.06,1.07,10.4181,10.4181,0,0,1-1.38.98,8.9933,8.9933,0,0,1-2.64,1.02,6.2985,6.2985,0,0,0,5.28,0,5.9674,5.9674,0,0,0,2.42-1.89,4.8258,4.8258,0,0,0,.65-1.03A6.0315,6.0315,0,0,0,12.7,9.93Zm-5.17-2c-.01.01-.02.03-.03.04a9.26,9.26,0,0,1-1.25,1.4,9.5925,9.5925,0,0,1-1.19.91,9.2683,9.2683,0,0,1-2.62,1.18,6.0989,6.0989,0,0,0,.53.61,7.7353,7.7353,0,0,0,3.15-.72,7.3839,7.3839,0,0,0,1.38-.82A7.6429,7.6429,0,0,0,8.75,9.37a7.7441,7.7441,0,0,0,.82-1.15A7.3414,7.3414,0,0,0,7.53,7.93Z" style="stroke: rgba(5, 5, 5, 0.93); stroke-width: 0.428px; fill: url('#gradient-4-5');"/>
  </g>
  <g transform="matrix(3.115264, 0, 0, 3.115264, -1255.403076, 146.463409)" style="transform-origin: -747.93px -63.13px;">
    <defs/>
    <path id="path-6" d="M13.91,7.94a5.9086,5.9086,0,0,1-.13.94,8.8218,8.8218,0,0,0-2.17-1.49,8.89,8.89,0,0,0-1.4-.56,8.6142,8.6142,0,0,0-1.82-.35.221.221,0,0,0-.08-.01A7.32,7.32,0,0,1,7.5,4.59c-.01-.01-.01-.01,0-.02a7.7573,7.7573,0,0,1,1.52.15,7.0987,7.0987,0,0,1,1.56.5,6.8585,6.8585,0,0,1,1.4.78A7.4165,7.4165,0,0,1,13.91,7.94Zm-1.87-5a6.2232,6.2232,0,0,0-1.85-1.27,4.2725,4.2725,0,0,0-.98-.36,5.6412,5.6412,0,0,0-1.55-.23,1.2882,1.2882,0,0,0-.32,0A7.4263,7.4263,0,0,0,7.21,2.5c0,.2.01.39.02.58a2.28,2.28,0,0,1,.26-.01,2.6438,2.6438,0,0,1,.28.01,8.2865,8.2865,0,0,1,1.49.16,8.9879,8.9879,0,0,1,1.35.37,8.7922,8.7922,0,0,1,1.53.7,10.18,10.18,0,0,1,1.39.97A6.4588,6.4588,0,0,0,12.04,2.94ZM4.01,8.76a9.4084,9.4084,0,0,1-.62-1.37,9.1038,9.1038,0,0,1-.37-1.41,9.1748,9.1748,0,0,1-.16-1.67V4.28a8.455,8.455,0,0,1,.1-1.34A6.28,6.28,0,0,0,1.47,5.3a6.2222,6.2222,0,0,0-.4,2.2c0,.15.01.3.02.44a5.9086,5.9086,0,0,0,.13.94,5.7343,5.7343,0,0,0,.41,1.23c.22-.05.44-.11.65-.17a8.0188,8.0188,0,0,0,1.9-.88C4.12,8.96,4.06,8.86,4.01,8.76Zm2.6-2.28a9,9,0,0,1-.63-1.76,9.135,9.135,0,0,1-.24-1.48c-.02-.25-.03-.49-.03-.74a9.3777,9.3777,0,0,1,.08-1.19,4.2725,4.2725,0,0,0-.98.36,7.7038,7.7038,0,0,0-.42,1.94c-.02.22-.03.44-.03.67a7.2659,7.2659,0,0,0,.06.93,7.4258,7.4258,0,0,0,.37,1.63,6.4705,6.4705,0,0,0,.59,1.28A8.0174,8.0174,0,0,0,6.65,6.55.2522.2522,0,0,1,6.61,6.48ZM12.7,9.93s0-.01-.01,0a7.0128,7.0128,0,0,0-1.7-1.16c-.06.1-.11.19-.17.29a8.783,8.783,0,0,1-.88,1.22,8.9125,8.9125,0,0,1-1.06,1.07,10.4181,10.4181,0,0,1-1.38.98,8.9933,8.9933,0,0,1-2.64,1.02,6.2985,6.2985,0,0,0,5.28,0,5.9674,5.9674,0,0,0,2.42-1.89,4.8258,4.8258,0,0,0,.65-1.03A6.0315,6.0315,0,0,0,12.7,9.93Zm-5.17-2c-.01.01-.02.03-.03.04a9.26,9.26,0,0,1-1.25,1.4,9.5925,9.5925,0,0,1-1.19.91,9.2683,9.2683,0,0,1-2.62,1.18,6.0989,6.0989,0,0,0,.53.61,7.7353,7.7353,0,0,0,3.15-.72,7.3839,7.3839,0,0,0,1.38-.82A7.6429,7.6429,0,0,0,8.75,9.37a7.7441,7.7441,0,0,0,.82-1.15A7.3414,7.3414,0,0,0,7.53,7.93Z" style="stroke: rgba(5, 5, 5, 0.93); stroke-width: 0.428px; fill: url('#gradient-4-6');"/>
  </g>
  <g transform="matrix(3.115264, 0, 0, 3.115264, -1402.06958, 93.130035)" style="transform-origin: -747.93px -63.13px;">
    <defs/>
    <path id="path-7" d="M13.91,7.94a5.9086,5.9086,0,0,1-.13.94,8.8218,8.8218,0,0,0-2.17-1.49,8.89,8.89,0,0,0-1.4-.56,8.6142,8.6142,0,0,0-1.82-.35.221.221,0,0,0-.08-.01A7.32,7.32,0,0,1,7.5,4.59c-.01-.01-.01-.01,0-.02a7.7573,7.7573,0,0,1,1.52.15,7.0987,7.0987,0,0,1,1.56.5,6.8585,6.8585,0,0,1,1.4.78A7.4165,7.4165,0,0,1,13.91,7.94Zm-1.87-5a6.2232,6.2232,0,0,0-1.85-1.27,4.2725,4.2725,0,0,0-.98-.36,5.6412,5.6412,0,0,0-1.55-.23,1.2882,1.2882,0,0,0-.32,0A7.4263,7.4263,0,0,0,7.21,2.5c0,.2.01.39.02.58a2.28,2.28,0,0,1,.26-.01,2.6438,2.6438,0,0,1,.28.01,8.2865,8.2865,0,0,1,1.49.16,8.9879,8.9879,0,0,1,1.35.37,8.7922,8.7922,0,0,1,1.53.7,10.18,10.18,0,0,1,1.39.97A6.4588,6.4588,0,0,0,12.04,2.94ZM4.01,8.76a9.4084,9.4084,0,0,1-.62-1.37,9.1038,9.1038,0,0,1-.37-1.41,9.1748,9.1748,0,0,1-.16-1.67V4.28a8.455,8.455,0,0,1,.1-1.34A6.28,6.28,0,0,0,1.47,5.3a6.2222,6.2222,0,0,0-.4,2.2c0,.15.01.3.02.44a5.9086,5.9086,0,0,0,.13.94,5.7343,5.7343,0,0,0,.41,1.23c.22-.05.44-.11.65-.17a8.0188,8.0188,0,0,0,1.9-.88C4.12,8.96,4.06,8.86,4.01,8.76Zm2.6-2.28a9,9,0,0,1-.63-1.76,9.135,9.135,0,0,1-.24-1.48c-.02-.25-.03-.49-.03-.74a9.3777,9.3777,0,0,1,.08-1.19,4.2725,4.2725,0,0,0-.98.36,7.7038,7.7038,0,0,0-.42,1.94c-.02.22-.03.44-.03.67a7.2659,7.2659,0,0,0,.06.93,7.4258,7.4258,0,0,0,.37,1.63,6.4705,6.4705,0,0,0,.59,1.28A8.0174,8.0174,0,0,0,6.65,6.55.2522.2522,0,0,1,6.61,6.48ZM12.7,9.93s0-.01-.01,0a7.0128,7.0128,0,0,0-1.7-1.16c-.06.1-.11.19-.17.29a8.783,8.783,0,0,1-.88,1.22,8.9125,8.9125,0,0,1-1.06,1.07,10.4181,10.4181,0,0,1-1.38.98,8.9933,8.9933,0,0,1-2.64,1.02,6.2985,6.2985,0,0,0,5.28,0,5.9674,5.9674,0,0,0,2.42-1.89,4.8258,4.8258,0,0,0,.65-1.03A6.0315,6.0315,0,0,0,12.7,9.93Zm-5.17-2c-.01.01-.02.03-.03.04a9.26,9.26,0,0,1-1.25,1.4,9.5925,9.5925,0,0,1-1.19.91,9.2683,9.2683,0,0,1-2.62,1.18,6.0989,6.0989,0,0,0,.53.61,7.7353,7.7353,0,0,0,3.15-.72,7.3839,7.3839,0,0,0,1.38-.82A7.6429,7.6429,0,0,0,8.75,9.37a7.7441,7.7441,0,0,0,.82-1.15A7.3414,7.3414,0,0,0,7.53,7.93Z" style="stroke: rgba(5, 5, 5, 0.93); stroke-width: 0.428px; fill: url('#gradient-4-7');"/>
  </g>
  <g transform="matrix(3.115264, 0, 0, 3.115264, -1402.06958, 39.796719)" style="transform-origin: -747.93px -63.13px;">
    <defs/>
    <path id="path-8" d="M13.91,7.94a5.9086,5.9086,0,0,1-.13.94,8.8218,8.8218,0,0,0-2.17-1.49,8.89,8.89,0,0,0-1.4-.56,8.6142,8.6142,0,0,0-1.82-.35.221.221,0,0,0-.08-.01A7.32,7.32,0,0,1,7.5,4.59c-.01-.01-.01-.01,0-.02a7.7573,7.7573,0,0,1,1.52.15,7.0987,7.0987,0,0,1,1.56.5,6.8585,6.8585,0,0,1,1.4.78A7.4165,7.4165,0,0,1,13.91,7.94Zm-1.87-5a6.2232,6.2232,0,0,0-1.85-1.27,4.2725,4.2725,0,0,0-.98-.36,5.6412,5.6412,0,0,0-1.55-.23,1.2882,1.2882,0,0,0-.32,0A7.4263,7.4263,0,0,0,7.21,2.5c0,.2.01.39.02.58a2.28,2.28,0,0,1,.26-.01,2.6438,2.6438,0,0,1,.28.01,8.2865,8.2865,0,0,1,1.49.16,8.9879,8.9879,0,0,1,1.35.37,8.7922,8.7922,0,0,1,1.53.7,10.18,10.18,0,0,1,1.39.97A6.4588,6.4588,0,0,0,12.04,2.94ZM4.01,8.76a9.4084,9.4084,0,0,1-.62-1.37,9.1038,9.1038,0,0,1-.37-1.41,9.1748,9.1748,0,0,1-.16-1.67V4.28a8.455,8.455,0,0,1,.1-1.34A6.28,6.28,0,0,0,1.47,5.3a6.2222,6.2222,0,0,0-.4,2.2c0,.15.01.3.02.44a5.9086,5.9086,0,0,0,.13.94,5.7343,5.7343,0,0,0,.41,1.23c.22-.05.44-.11.65-.17a8.0188,8.0188,0,0,0,1.9-.88C4.12,8.96,4.06,8.86,4.01,8.76Zm2.6-2.28a9,9,0,0,1-.63-1.76,9.135,9.135,0,0,1-.24-1.48c-.02-.25-.03-.49-.03-.74a9.3777,9.3777,0,0,1,.08-1.19,4.2725,4.2725,0,0,0-.98.36,7.7038,7.7038,0,0,0-.42,1.94c-.02.22-.03.44-.03.67a7.2659,7.2659,0,0,0,.06.93,7.4258,7.4258,0,0,0,.37,1.63,6.4705,6.4705,0,0,0,.59,1.28A8.0174,8.0174,0,0,0,6.65,6.55.2522.2522,0,0,1,6.61,6.48ZM12.7,9.93s0-.01-.01,0a7.0128,7.0128,0,0,0-1.7-1.16c-.06.1-.11.19-.17.29a8.783,8.783,0,0,1-.88,1.22,8.9125,8.9125,0,0,1-1.06,1.07,10.4181,10.4181,0,0,1-1.38.98,8.9933,8.9933,0,0,1-2.64,1.02,6.2985,6.2985,0,0,0,5.28,0,5.9674,5.9674,0,0,0,2.42-1.89,4.8258,4.8258,0,0,0,.65-1.03A6.0315,6.0315,0,0,0,12.7,9.93Zm-5.17-2c-.01.01-.02.03-.03.04a9.26,9.26,0,0,1-1.25,1.4,9.5925,9.5925,0,0,1-1.19.91,9.2683,9.2683,0,0,1-2.62,1.18,6.0989,6.0989,0,0,0,.53.61,7.7353,7.7353,0,0,0,3.15-.72,7.3839,7.3839,0,0,0,1.38-.82A7.6429,7.6429,0,0,0,8.75,9.37a7.7441,7.7441,0,0,0,.82-1.15A7.3414,7.3414,0,0,0,7.53,7.93Z" style="stroke: rgba(5, 5, 5, 0.93); stroke-width: 0.428px; fill: url('#gradient-4-8');"/>
  </g>
  <g transform="matrix(3.115264, 0, 0, 3.115264, -1455.402832, 39.796719)" style="transform-origin: -747.93px -63.13px;">
    <defs/>
    <path id="path-15" d="M13.91,7.94a5.9086,5.9086,0,0,1-.13.94,8.8218,8.8218,0,0,0-2.17-1.49,8.89,8.89,0,0,0-1.4-.56,8.6142,8.6142,0,0,0-1.82-.35.221.221,0,0,0-.08-.01A7.32,7.32,0,0,1,7.5,4.59c-.01-.01-.01-.01,0-.02a7.7573,7.7573,0,0,1,1.52.15,7.0987,7.0987,0,0,1,1.56.5,6.8585,6.8585,0,0,1,1.4.78A7.4165,7.4165,0,0,1,13.91,7.94Zm-1.87-5a6.2232,6.2232,0,0,0-1.85-1.27,4.2725,4.2725,0,0,0-.98-.36,5.6412,5.6412,0,0,0-1.55-.23,1.2882,1.2882,0,0,0-.32,0A7.4263,7.4263,0,0,0,7.21,2.5c0,.2.01.39.02.58a2.28,2.28,0,0,1,.26-.01,2.6438,2.6438,0,0,1,.28.01,8.2865,8.2865,0,0,1,1.49.16,8.9879,8.9879,0,0,1,1.35.37,8.7922,8.7922,0,0,1,1.53.7,10.18,10.18,0,0,1,1.39.97A6.4588,6.4588,0,0,0,12.04,2.94ZM4.01,8.76a9.4084,9.4084,0,0,1-.62-1.37,9.1038,9.1038,0,0,1-.37-1.41,9.1748,9.1748,0,0,1-.16-1.67V4.28a8.455,8.455,0,0,1,.1-1.34A6.28,6.28,0,0,0,1.47,5.3a6.2222,6.2222,0,0,0-.4,2.2c0,.15.01.3.02.44a5.9086,5.9086,0,0,0,.13.94,5.7343,5.7343,0,0,0,.41,1.23c.22-.05.44-.11.65-.17a8.0188,8.0188,0,0,0,1.9-.88C4.12,8.96,4.06,8.86,4.01,8.76Zm2.6-2.28a9,9,0,0,1-.63-1.76,9.135,9.135,0,0,1-.24-1.48c-.02-.25-.03-.49-.03-.74a9.3777,9.3777,0,0,1,.08-1.19,4.2725,4.2725,0,0,0-.98.36,7.7038,7.7038,0,0,0-.42,1.94c-.02.22-.03.44-.03.67a7.2659,7.2659,0,0,0,.06.93,7.4258,7.4258,0,0,0,.37,1.63,6.4705,6.4705,0,0,0,.59,1.28A8.0174,8.0174,0,0,0,6.65,6.55.2522.2522,0,0,1,6.61,6.48ZM12.7,9.93s0-.01-.01,0a7.0128,7.0128,0,0,0-1.7-1.16c-.06.1-.11.19-.17.29a8.783,8.783,0,0,1-.88,1.22,8.9125,8.9125,0,0,1-1.06,1.07,10.4181,10.4181,0,0,1-1.38.98,8.9933,8.9933,0,0,1-2.64,1.02,6.2985,6.2985,0,0,0,5.28,0,5.9674,5.9674,0,0,0,2.42-1.89,4.8258,4.8258,0,0,0,.65-1.03A6.0315,6.0315,0,0,0,12.7,9.93Zm-5.17-2c-.01.01-.02.03-.03.04a9.26,9.26,0,0,1-1.25,1.4,9.5925,9.5925,0,0,1-1.19.91,9.2683,9.2683,0,0,1-2.62,1.18,6.0989,6.0989,0,0,0,.53.61,7.7353,7.7353,0,0,0,3.15-.72,7.3839,7.3839,0,0,0,1.38-.82A7.6429,7.6429,0,0,0,8.75,9.37a7.7441,7.7441,0,0,0,.82-1.15A7.3414,7.3414,0,0,0,7.53,7.93Z" style="stroke: rgba(5, 5, 5, 0.93); stroke-width: 0.428px; fill: url('#gradient-4-9');"/>
  </g>
  <g transform="matrix(3.115264, 0, 0, 3.115264, -1508.736328, 93.130035)" style="transform-origin: -747.93px -63.13px;">
    <defs/>
    <path id="path-16" d="M13.91,7.94a5.9086,5.9086,0,0,1-.13.94,8.8218,8.8218,0,0,0-2.17-1.49,8.89,8.89,0,0,0-1.4-.56,8.6142,8.6142,0,0,0-1.82-.35.221.221,0,0,0-.08-.01A7.32,7.32,0,0,1,7.5,4.59c-.01-.01-.01-.01,0-.02a7.7573,7.7573,0,0,1,1.52.15,7.0987,7.0987,0,0,1,1.56.5,6.8585,6.8585,0,0,1,1.4.78A7.4165,7.4165,0,0,1,13.91,7.94Zm-1.87-5a6.2232,6.2232,0,0,0-1.85-1.27,4.2725,4.2725,0,0,0-.98-.36,5.6412,5.6412,0,0,0-1.55-.23,1.2882,1.2882,0,0,0-.32,0A7.4263,7.4263,0,0,0,7.21,2.5c0,.2.01.39.02.58a2.28,2.28,0,0,1,.26-.01,2.6438,2.6438,0,0,1,.28.01,8.2865,8.2865,0,0,1,1.49.16,8.9879,8.9879,0,0,1,1.35.37,8.7922,8.7922,0,0,1,1.53.7,10.18,10.18,0,0,1,1.39.97A6.4588,6.4588,0,0,0,12.04,2.94ZM4.01,8.76a9.4084,9.4084,0,0,1-.62-1.37,9.1038,9.1038,0,0,1-.37-1.41,9.1748,9.1748,0,0,1-.16-1.67V4.28a8.455,8.455,0,0,1,.1-1.34A6.28,6.28,0,0,0,1.47,5.3a6.2222,6.2222,0,0,0-.4,2.2c0,.15.01.3.02.44a5.9086,5.9086,0,0,0,.13.94,5.7343,5.7343,0,0,0,.41,1.23c.22-.05.44-.11.65-.17a8.0188,8.0188,0,0,0,1.9-.88C4.12,8.96,4.06,8.86,4.01,8.76Zm2.6-2.28a9,9,0,0,1-.63-1.76,9.135,9.135,0,0,1-.24-1.48c-.02-.25-.03-.49-.03-.74a9.3777,9.3777,0,0,1,.08-1.19,4.2725,4.2725,0,0,0-.98.36,7.7038,7.7038,0,0,0-.42,1.94c-.02.22-.03.44-.03.67a7.2659,7.2659,0,0,0,.06.93,7.4258,7.4258,0,0,0,.37,1.63,6.4705,6.4705,0,0,0,.59,1.28A8.0174,8.0174,0,0,0,6.65,6.55.2522.2522,0,0,1,6.61,6.48ZM12.7,9.93s0-.01-.01,0a7.0128,7.0128,0,0,0-1.7-1.16c-.06.1-.11.19-.17.29a8.783,8.783,0,0,1-.88,1.22,8.9125,8.9125,0,0,1-1.06,1.07,10.4181,10.4181,0,0,1-1.38.98,8.9933,8.9933,0,0,1-2.64,1.02,6.2985,6.2985,0,0,0,5.28,0,5.9674,5.9674,0,0,0,2.42-1.89,4.8258,4.8258,0,0,0,.65-1.03A6.0315,6.0315,0,0,0,12.7,9.93Zm-5.17-2c-.01.01-.02.03-.03.04a9.26,9.26,0,0,1-1.25,1.4,9.5925,9.5925,0,0,1-1.19.91,9.2683,9.2683,0,0,1-2.62,1.18,6.0989,6.0989,0,0,0,.53.61,7.7353,7.7353,0,0,0,3.15-.72,7.3839,7.3839,0,0,0,1.38-.82A7.6429,7.6429,0,0,0,8.75,9.37a7.7441,7.7441,0,0,0,.82-1.15A7.3414,7.3414,0,0,0,7.53,7.93Z" style="stroke: rgba(5, 5, 5, 0.93); stroke-width: 0.428px; fill: url('#gradient-4-10');"/>
  </g>
  <g transform="matrix(3.115264, 0, 0, 3.115264, -1508.736328, 146.463409)" style="transform-origin: -747.93px -63.13px;">
    <defs/>
    <path id="path-17" d="M13.91,7.94a5.9086,5.9086,0,0,1-.13.94,8.8218,8.8218,0,0,0-2.17-1.49,8.89,8.89,0,0,0-1.4-.56,8.6142,8.6142,0,0,0-1.82-.35.221.221,0,0,0-.08-.01A7.32,7.32,0,0,1,7.5,4.59c-.01-.01-.01-.01,0-.02a7.7573,7.7573,0,0,1,1.52.15,7.0987,7.0987,0,0,1,1.56.5,6.8585,6.8585,0,0,1,1.4.78A7.4165,7.4165,0,0,1,13.91,7.94Zm-1.87-5a6.2232,6.2232,0,0,0-1.85-1.27,4.2725,4.2725,0,0,0-.98-.36,5.6412,5.6412,0,0,0-1.55-.23,1.2882,1.2882,0,0,0-.32,0A7.4263,7.4263,0,0,0,7.21,2.5c0,.2.01.39.02.58a2.28,2.28,0,0,1,.26-.01,2.6438,2.6438,0,0,1,.28.01,8.2865,8.2865,0,0,1,1.49.16,8.9879,8.9879,0,0,1,1.35.37,8.7922,8.7922,0,0,1,1.53.7,10.18,10.18,0,0,1,1.39.97A6.4588,6.4588,0,0,0,12.04,2.94ZM4.01,8.76a9.4084,9.4084,0,0,1-.62-1.37,9.1038,9.1038,0,0,1-.37-1.41,9.1748,9.1748,0,0,1-.16-1.67V4.28a8.455,8.455,0,0,1,.1-1.34A6.28,6.28,0,0,0,1.47,5.3a6.2222,6.2222,0,0,0-.4,2.2c0,.15.01.3.02.44a5.9086,5.9086,0,0,0,.13.94,5.7343,5.7343,0,0,0,.41,1.23c.22-.05.44-.11.65-.17a8.0188,8.0188,0,0,0,1.9-.88C4.12,8.96,4.06,8.86,4.01,8.76Zm2.6-2.28a9,9,0,0,1-.63-1.76,9.135,9.135,0,0,1-.24-1.48c-.02-.25-.03-.49-.03-.74a9.3777,9.3777,0,0,1,.08-1.19,4.2725,4.2725,0,0,0-.98.36,7.7038,7.7038,0,0,0-.42,1.94c-.02.22-.03.44-.03.67a7.2659,7.2659,0,0,0,.06.93,7.4258,7.4258,0,0,0,.37,1.63,6.4705,6.4705,0,0,0,.59,1.28A8.0174,8.0174,0,0,0,6.65,6.55.2522.2522,0,0,1,6.61,6.48ZM12.7,9.93s0-.01-.01,0a7.0128,7.0128,0,0,0-1.7-1.16c-.06.1-.11.19-.17.29a8.783,8.783,0,0,1-.88,1.22,8.9125,8.9125,0,0,1-1.06,1.07,10.4181,10.4181,0,0,1-1.38.98,8.9933,8.9933,0,0,1-2.64,1.02,6.2985,6.2985,0,0,0,5.28,0,5.9674,5.9674,0,0,0,2.42-1.89,4.8258,4.8258,0,0,0,.65-1.03A6.0315,6.0315,0,0,0,12.7,9.93Zm-5.17-2c-.01.01-.02.03-.03.04a9.26,9.26,0,0,1-1.25,1.4,9.5925,9.5925,0,0,1-1.19.91,9.2683,9.2683,0,0,1-2.62,1.18,6.0989,6.0989,0,0,0,.53.61,7.7353,7.7353,0,0,0,3.15-.72,7.3839,7.3839,0,0,0,1.38-.82A7.6429,7.6429,0,0,0,8.75,9.37a7.7441,7.7441,0,0,0,.82-1.15A7.3414,7.3414,0,0,0,7.53,7.93Z" style="stroke: rgba(5, 5, 5, 0.93); stroke-width: 0.428px; fill: url('#gradient-4-11');"/>
  </g>
  <g transform="matrix(3.115264, 0, 0, 3.115264, -1455.402954, 146.463409)" style="transform-origin: -747.93px -63.13px;">
    <defs/>
    <path id="path-18" d="M13.91,7.94a5.9086,5.9086,0,0,1-.13.94,8.8218,8.8218,0,0,0-2.17-1.49,8.89,8.89,0,0,0-1.4-.56,8.6142,8.6142,0,0,0-1.82-.35.221.221,0,0,0-.08-.01A7.32,7.32,0,0,1,7.5,4.59c-.01-.01-.01-.01,0-.02a7.7573,7.7573,0,0,1,1.52.15,7.0987,7.0987,0,0,1,1.56.5,6.8585,6.8585,0,0,1,1.4.78A7.4165,7.4165,0,0,1,13.91,7.94Zm-1.87-5a6.2232,6.2232,0,0,0-1.85-1.27,4.2725,4.2725,0,0,0-.98-.36,5.6412,5.6412,0,0,0-1.55-.23,1.2882,1.2882,0,0,0-.32,0A7.4263,7.4263,0,0,0,7.21,2.5c0,.2.01.39.02.58a2.28,2.28,0,0,1,.26-.01,2.6438,2.6438,0,0,1,.28.01,8.2865,8.2865,0,0,1,1.49.16,8.9879,8.9879,0,0,1,1.35.37,8.7922,8.7922,0,0,1,1.53.7,10.18,10.18,0,0,1,1.39.97A6.4588,6.4588,0,0,0,12.04,2.94ZM4.01,8.76a9.4084,9.4084,0,0,1-.62-1.37,9.1038,9.1038,0,0,1-.37-1.41,9.1748,9.1748,0,0,1-.16-1.67V4.28a8.455,8.455,0,0,1,.1-1.34A6.28,6.28,0,0,0,1.47,5.3a6.2222,6.2222,0,0,0-.4,2.2c0,.15.01.3.02.44a5.9086,5.9086,0,0,0,.13.94,5.7343,5.7343,0,0,0,.41,1.23c.22-.05.44-.11.65-.17a8.0188,8.0188,0,0,0,1.9-.88C4.12,8.96,4.06,8.86,4.01,8.76Zm2.6-2.28a9,9,0,0,1-.63-1.76,9.135,9.135,0,0,1-.24-1.48c-.02-.25-.03-.49-.03-.74a9.3777,9.3777,0,0,1,.08-1.19,4.2725,4.2725,0,0,0-.98.36,7.7038,7.7038,0,0,0-.42,1.94c-.02.22-.03.44-.03.67a7.2659,7.2659,0,0,0,.06.93,7.4258,7.4258,0,0,0,.37,1.63,6.4705,6.4705,0,0,0,.59,1.28A8.0174,8.0174,0,0,0,6.65,6.55.2522.2522,0,0,1,6.61,6.48ZM12.7,9.93s0-.01-.01,0a7.0128,7.0128,0,0,0-1.7-1.16c-.06.1-.11.19-.17.29a8.783,8.783,0,0,1-.88,1.22,8.9125,8.9125,0,0,1-1.06,1.07,10.4181,10.4181,0,0,1-1.38.98,8.9933,8.9933,0,0,1-2.64,1.02,6.2985,6.2985,0,0,0,5.28,0,5.9674,5.9674,0,0,0,2.42-1.89,4.8258,4.8258,0,0,0,.65-1.03A6.0315,6.0315,0,0,0,12.7,9.93Zm-5.17-2c-.01.01-.02.03-.03.04a9.26,9.26,0,0,1-1.25,1.4,9.5925,9.5925,0,0,1-1.19.91,9.2683,9.2683,0,0,1-2.62,1.18,6.0989,6.0989,0,0,0,.53.61,7.7353,7.7353,0,0,0,3.15-.72,7.3839,7.3839,0,0,0,1.38-.82A7.6429,7.6429,0,0,0,8.75,9.37a7.7441,7.7441,0,0,0,.82-1.15A7.3414,7.3414,0,0,0,7.53,7.93Z" style="stroke: rgba(5, 5, 5, 0.93); stroke-width: 0.428px; fill: url('#gradient-4-12');"/>
  </g>
</svg>